<svg width="0" height="0" class="hidden">
  <symbol fill="none" xmlns="http://www.w3.org/2000/svg" viewBox="0 0 20 20" id="calculator">
    <path d="M2.5 8.33301H17.5" stroke="currentColor" stroke-width="1.5" stroke-linejoin="round"></path>
    <path d="M12.5 5L14.1667 5" stroke="currentColor" stroke-width="1.5" stroke-linecap="round" stroke-linejoin="round"></path>
    <path d="M17.5 10.8337V9.16699C17.5 5.63146 17.5 3.86369 16.4016 2.76534C15.3033 1.66699 13.5355 1.66699 10 1.66699C6.46447 1.66699 4.6967 1.66699 3.59835 2.76534C2.5 3.86369 2.5 5.63146 2.5 9.16699V10.8337C2.5 14.3692 2.5 16.137 3.59835 17.2353C4.6967 18.3337 6.46447 18.3337 10 18.3337C13.5355 18.3337 15.3033 18.3337 16.4016 17.2353C17.5 16.137 17.5 14.3692 17.5 10.8337Z" stroke="currentColor" stroke-width="1.5"></path>
    <path d="M5.83301 11.667H6.2716M9.78038 11.667H10.219M13.7277 11.667H14.1663" stroke="currentColor" stroke-width="1.5" stroke-linecap="round" stroke-linejoin="round"></path>
    <path d="M5.83301 15H6.2716M9.78038 15H10.219M13.7277 15H14.1663" stroke="currentColor" stroke-width="1.5" stroke-linecap="round" stroke-linejoin="round"></path>
  </symbol>
  <symbol fill="none" xmlns="http://www.w3.org/2000/svg" viewBox="0 0 20 20" id="grid-view">
    <g clip-path="url(#clip0_10448_94309)">
      <path d="M1.66699 15.0003C1.66699 13.7166 1.66699 13.0748 1.95593 12.6033C2.11761 12.3394 2.33944 12.1176 2.60327 11.9559C3.07478 11.667 3.71663 11.667 5.00033 11.667C6.28402 11.667 6.92587 11.667 7.39738 11.9559C7.66122 12.1176 7.88304 12.3394 8.04472 12.6033C8.33366 13.0748 8.33366 13.7166 8.33366 15.0003C8.33366 16.284 8.33366 16.9259 8.04472 17.3974C7.88304 17.6612 7.66122 17.883 7.39738 18.0447C6.92587 18.3337 6.28402 18.3337 5.00033 18.3337C3.71663 18.3337 3.07478 18.3337 2.60327 18.0447C2.33944 17.883 2.11761 17.6612 1.95593 17.3974C1.66699 16.9259 1.66699 16.284 1.66699 15.0003Z" stroke="currentColor" stroke-width="1.5"></path>
      <path d="M11.667 15.0003C11.667 13.7166 11.667 13.0748 11.9559 12.6033C12.1176 12.3394 12.3394 12.1176 12.6033 11.9559C13.0748 11.667 13.7166 11.667 15.0003 11.667C16.284 11.667 16.9259 11.667 17.3974 11.9559C17.6612 12.1176 17.883 12.3394 18.0447 12.6033C18.3337 13.0748 18.3337 13.7166 18.3337 15.0003C18.3337 16.284 18.3337 16.9259 18.0447 17.3974C17.883 17.6612 17.6612 17.883 17.3974 18.0447C16.9259 18.3337 16.284 18.3337 15.0003 18.3337C13.7166 18.3337 13.0748 18.3337 12.6033 18.0447C12.3394 17.883 12.1176 17.6612 11.9559 17.3974C11.667 16.9259 11.667 16.284 11.667 15.0003Z" stroke="currentColor" stroke-width="1.5"></path>
      <path d="M1.66699 5.00033C1.66699 3.71663 1.66699 3.07478 1.95593 2.60327C2.11761 2.33944 2.33944 2.11761 2.60327 1.95593C3.07478 1.66699 3.71663 1.66699 5.00033 1.66699C6.28402 1.66699 6.92587 1.66699 7.39738 1.95593C7.66122 2.11761 7.88304 2.33944 8.04472 2.60327C8.33366 3.07478 8.33366 3.71663 8.33366 5.00033C8.33366 6.28402 8.33366 6.92587 8.04472 7.39738C7.88304 7.66122 7.66122 7.88304 7.39738 8.04472C6.92587 8.33366 6.28402 8.33366 5.00033 8.33366C3.71663 8.33366 3.07478 8.33366 2.60327 8.04472C2.33944 7.88304 2.11761 7.66122 1.95593 7.39738C1.66699 6.92587 1.66699 6.28402 1.66699 5.00033Z" stroke="currentColor" stroke-width="1.5"></path>
      <path d="M11.667 5.00033C11.667 3.71663 11.667 3.07478 11.9559 2.60327C12.1176 2.33944 12.3394 2.11761 12.6033 1.95593C13.0748 1.66699 13.7166 1.66699 15.0003 1.66699C16.284 1.66699 16.9259 1.66699 17.3974 1.95593C17.6612 2.11761 17.883 2.33944 18.0447 2.60327C18.3337 3.07478 18.3337 3.71663 18.3337 5.00033C18.3337 6.28402 18.3337 6.92587 18.0447 7.39738C17.883 7.66122 17.6612 7.88304 17.3974 8.04472C16.9259 8.33366 16.284 8.33366 15.0003 8.33366C13.7166 8.33366 13.0748 8.33366 12.6033 8.04472C12.3394 7.88304 12.1176 7.66122 11.9559 7.39738C11.667 6.92587 11.667 6.28402 11.667 5.00033Z" stroke="currentColor" stroke-width="1.5"></path>
    </g>
    <defs>
      <clipPath id="clip0_10448_94309">
        <rect width="20" height="20" fill="white"></rect>
      </clipPath>
    </defs>
  </symbol>
  <symbol fill="none" xmlns="http://www.w3.org/2000/svg" viewBox="0 0 24 24" id="mail-at-sign">
    <path opacity="0.4" d="M14.795 1.66181C12.842 1.61273 10.908 1.61273 8.95499 1.6618L8.89682 1.66326C7.372 1.70155 6.14502 1.73235 5.1617 1.9036C4.1322 2.08289 3.29548 2.42677 2.58862 3.13632C1.88471 3.8429 1.54264 4.6676 1.36676 5.6804C1.19929 6.64478 1.17378 7.8418 1.14219 9.32465L1.14093 9.38339C1.11969 10.3797 1.11969 11.3703 1.14094 12.3666L1.14219 12.4254C1.17379 13.9082 1.19929 15.1052 1.36676 16.0696C1.54264 17.0824 1.88472 17.9071 2.58862 18.6137C3.29548 19.3232 4.1322 19.6671 5.1617 19.8464C6.14501 20.0176 7.37197 20.0485 8.89677 20.0867L8.95499 20.0882C9.3618 20.0984 9.76778 20.1065 10.1733 20.1125C10.6067 20.1189 10.8234 20.122 10.9148 19.9948C11.0063 19.8675 10.9285 19.6476 10.7731 19.2078C10.5153 18.4781 10.375 17.693 10.375 16.875C10.375 13.009 13.509 9.875 17.375 9.875C18.9069 9.875 20.3238 10.3671 21.4764 11.2018C22.0253 11.5993 22.2997 11.798 22.4635 11.7142C22.6272 11.6303 22.6264 11.3186 22.6248 10.6952C22.6236 10.2584 22.6184 9.82148 22.6091 9.3834L22.6078 9.32467C22.5762 7.84183 22.5507 6.64479 22.3832 5.68042C22.2074 4.66761 21.8653 3.84292 21.1614 3.13634C20.4545 2.42679 19.6178 2.08291 18.5883 1.90362C17.605 1.73237 16.378 1.70156 14.8532 1.66327L14.795 1.66181Z" fill="currentColor"></path>
    <path d="M6.01435 6.15137C6.29543 5.67597 6.90869 5.51843 7.3841 5.79951L10.3261 7.53894C11.1664 8.03578 11.5648 8.16031 11.8752 8.16031C12.1855 8.16031 12.5839 8.03578 13.4242 7.53894L16.3662 5.79951C16.8416 5.51843 17.4549 5.67597 17.736 6.15137C18.017 6.62678 17.8595 7.24004 17.3841 7.52112L14.4421 9.26055C13.5666 9.77819 12.7648 10.1603 11.8752 10.1603C10.9855 10.1603 10.1838 9.77819 9.30823 9.26055L6.36622 7.52112C5.89081 7.24004 5.73328 6.62678 6.01435 6.15137Z" fill="currentColor"></path>
    <path fill-rule="evenodd" clip-rule="evenodd" d="M17.375 13.375C15.442 13.375 13.875 14.942 13.875 16.875C13.875 18.808 15.442 20.375 17.375 20.375C17.9273 20.375 18.375 20.8227 18.375 21.375C18.375 21.9273 17.9273 22.375 17.375 22.375C14.3374 22.375 11.875 19.9126 11.875 16.875C11.875 13.8374 14.3374 11.375 17.375 11.375C20.4126 11.375 22.875 13.8374 22.875 16.875V17.375C22.875 18.7557 21.7557 19.875 20.375 19.875C19.6546 19.875 19.0053 19.5703 18.5491 19.0827C18.1991 19.2693 17.7994 19.375 17.375 19.375C15.9943 19.375 14.875 18.2557 14.875 16.875C14.875 15.4943 15.9943 14.375 17.375 14.375C18.7557 14.375 19.875 15.4943 19.875 16.875V17.375C19.875 17.6511 20.0989 17.875 20.375 17.875C20.6511 17.875 20.875 17.6511 20.875 17.375V16.875C20.875 14.942 19.308 13.375 17.375 13.375ZM17.875 16.875C17.875 16.5989 17.6511 16.375 17.375 16.375C17.0989 16.375 16.875 16.5989 16.875 16.875C16.875 17.1511 17.0989 17.375 17.375 17.375C17.6511 17.375 17.875 17.1511 17.875 16.875Z" fill="currentColor"></path>
  </symbol>
  <symbol fill="none" xmlns="http://www.w3.org/2000/svg" viewBox="0 0 24 24" id="message-add">
    <path fill-rule="evenodd" clip-rule="evenodd" d="M18.375 1.125C18.9273 1.125 19.375 1.57272 19.375 2.125V4.625H21.875C22.4273 4.625 22.875 5.07272 22.875 5.625C22.875 6.17728 22.4273 6.625 21.875 6.625H19.375V9.125C19.375 9.67728 18.9273 10.125 18.375 10.125C17.8227 10.125 17.375 9.67728 17.375 9.125V6.625H14.875C14.3227 6.625 13.875 6.17728 13.875 5.625C13.875 5.07272 14.3227 4.625 14.875 4.625H17.375V2.125C17.375 1.57272 17.8227 1.125 18.375 1.125Z" fill="currentColor"></path>
    <path opacity="0.4" d="M15.875 2.91019C15.875 2.81335 15.8103 2.72821 15.7164 2.70442C15.1929 2.57171 14.6511 2.48467 14.0954 2.44773C12.6351 2.35066 11.1119 2.35086 9.65465 2.44773C5.088 2.75129 1.46472 6.43758 1.1668 11.0474C1.11107 11.9098 1.11107 12.8018 1.1668 13.6642C1.27772 15.3806 2.02648 16.929 2.85881 18.1854C3.10814 18.6669 2.97823 19.3891 2.5119 20.2728L2.49042 20.3135C2.33374 20.6102 2.18036 20.9007 2.09188 21.1484C1.99813 21.4108 1.90123 21.8275 2.14291 22.2395C2.36496 22.6181 2.71975 22.7568 3.00652 22.8123C3.24461 22.8584 3.53655 22.8653 3.81044 22.8719L3.85617 22.873C5.27592 22.9075 6.27636 22.4976 7.0688 21.9133C7.10278 21.8882 7.13446 21.8649 7.16407 21.8431C7.28359 21.7552 7.34335 21.7112 7.42104 21.7016C7.49873 21.692 7.56703 21.7198 7.70361 21.7755C7.77126 21.803 7.84733 21.8343 7.93339 21.8698C8.47478 22.0927 9.08972 22.2263 9.65465 22.2639C11.1119 22.3607 12.6351 22.3609 14.0954 22.2639C18.662 21.9603 22.2853 18.274 22.5832 13.6642C22.6389 12.8018 22.6389 11.9098 22.5832 11.0474C22.5257 10.1584 22.3446 9.30379 22.0569 8.50115C21.9931 8.32312 21.9612 8.23411 21.8835 8.17943C21.8058 8.12475 21.707 8.12478 21.5095 8.12483L21.4748 8.12484C21.1921 8.12492 21.0507 8.12495 20.9628 8.21282C20.875 8.30068 20.875 8.44207 20.875 8.72484V9.125C20.875 10.5057 19.7557 11.625 18.375 11.625C16.9943 11.625 15.875 10.5057 15.875 9.125V8.725C15.875 8.44216 15.875 8.30074 15.7871 8.21287C15.6993 8.125 15.5578 8.125 15.275 8.125H14.875C13.4943 8.125 12.375 7.00571 12.375 5.625C12.375 4.24429 13.4943 3.125 14.875 3.125H15.6602C15.7788 3.125 15.875 3.02883 15.875 2.91019Z" fill="currentColor"></path>
    <path fill-rule="evenodd" clip-rule="evenodd" d="M6.875 12.625C6.875 12.0727 7.32272 11.625 7.875 11.625H7.88397C8.43626 11.625 8.88397 12.0727 8.88397 12.625C8.88397 13.1773 8.43626 13.625 7.88397 13.625H7.875C7.32272 13.625 6.875 13.1773 6.875 12.625ZM10.8705 12.625C10.8705 12.0727 11.3182 11.625 11.8705 11.625H11.8795C12.4318 11.625 12.8795 12.0727 12.8795 12.625C12.8795 13.1773 12.4318 13.625 11.8795 13.625H11.8705C11.3182 13.625 10.8705 13.1773 10.8705 12.625ZM14.866 12.625C14.866 12.0727 15.3137 11.625 15.866 11.625H15.875C16.4273 11.625 16.875 12.0727 16.875 12.625C16.875 13.1773 16.4273 13.625 15.875 13.625H15.866C15.3137 13.625 14.866 13.1773 14.866 12.625Z" fill="currentColor"></path>
  </symbol>
  <symbol fill="none" xmlns="http://www.w3.org/2000/svg" viewBox="0 0 20 20" id="money-exchange">
    <g clip-path="url(#clip0_10448_94319)">
      <path d="M16.1114 11.667L16.7974 12.2986C16.9467 12.4453 17.0214 12.5187 16.9951 12.5811C16.9689 12.6434 16.8633 12.6434 16.6521 12.6434H14.0651C12.7406 12.6434 11.667 13.6986 11.667 15.0003C11.667 15.2937 11.7215 15.5746 11.8212 15.8337M13.8892 18.3337L13.2032 17.7021C13.0539 17.5553 12.9792 17.4819 13.0055 17.4196C13.0318 17.3572 13.1374 17.3572 13.3486 17.3572H15.9356C17.26 17.3572 18.3337 16.302 18.3337 15.0003C18.3337 14.7069 18.2791 14.4261 18.1795 14.167" stroke="currentColor" stroke-width="1.5" stroke-linecap="round" stroke-linejoin="round"></path>
      <path d="M18.3264 9.58366C18.3337 9.08304 18.3337 8.94657 18.3337 8.33366C18.3337 5.19096 18.3337 3.61961 17.3573 2.6433C16.381 1.66699 14.8097 1.66699 11.667 1.66699H8.33366C5.19096 1.66699 3.61961 1.66699 2.6433 2.6433C1.66699 3.61961 1.66699 5.19096 1.66699 8.33366C1.66699 11.4764 1.66699 13.0477 2.6433 14.024C3.61961 15.0003 5.19096 15.0003 8.33366 15.0003H9.16699" stroke="currentColor" stroke-width="1.5" stroke-linecap="round"></path>
      <path d="M15.417 8.33301H15.4095" stroke="currentColor" stroke-width="2" stroke-linecap="round" stroke-linejoin="round"></path>
      <path d="M4.58301 8.33301H4.57552" stroke="currentColor" stroke-width="2" stroke-linecap="round" stroke-linejoin="round"></path>
      <path d="M12.0837 8.33333C12.0837 9.48393 11.1509 10.4167 10.0003 10.4167C8.84973 10.4167 7.91699 9.48393 7.91699 8.33333C7.91699 7.18274 8.84973 6.25 10.0003 6.25C11.1509 6.25 12.0837 7.18274 12.0837 8.33333Z" stroke="currentColor" stroke-width="1.5"></path>
    </g>
    <defs>
      <clipPath id="clip0_10448_94319">
        <rect width="20" height="20" fill="white"></rect>
      </clipPath>
    </defs>
  </symbol>
  <symbol fill="none" xmlns="http://www.w3.org/2000/svg" viewBox="0 0 18 19" id="notification">
    <path d="M0.776888 11.3914C0.599677 12.553 1.39195 13.3594 2.362 13.7612C6.08096 15.3018 11.2563 15.3018 14.9752 13.7612C15.9453 13.3594 16.7376 12.553 16.5604 11.3914C16.4514 10.6774 15.9129 10.0829 15.5139 9.50243C14.9914 8.73272 14.9394 7.89319 14.9393 7C14.9393 3.54822 12.1318 0.75 8.66862 0.75C5.20539 0.75 2.39789 3.54822 2.39789 7C2.39781 7.89319 2.34589 8.73272 1.82329 9.50243C1.42432 10.0829 0.885797 10.6774 0.776888 11.3914Z" stroke="currentColor" stroke-width="1.5" stroke-linecap="round" stroke-linejoin="round"></path>
    <path d="M5.33594 14.916C5.71801 16.3537 7.06555 17.416 8.66927 17.416C10.273 17.416 11.6205 16.3537 12.0026 14.916" stroke="currentColor" stroke-width="1.5" stroke-linecap="round" stroke-linejoin="round"></path>
  </symbol>

  <symbol fill="none" xmlns="http://www.w3.org/2000/svg" viewBox="0 0 14 14" id="search">
    <g clip-path="url(#clip0_10448_110337)">
      <path d="M12.25 12.25L9.7125 9.7125M11.0833 6.41667C11.0833 8.994 8.994 11.0833 6.41667 11.0833C3.83934 11.0833 1.75 8.994 1.75 6.41667C1.75 3.83934 3.83934 1.75 6.41667 1.75C8.994 1.75 11.0833 3.83934 11.0833 6.41667Z" stroke="currentColor" stroke-width="2" stroke-linecap="round" stroke-linejoin="round"></path>
    </g>
    <defs>
      <clipPath id="clip0_10448_110337">
        <rect width="14" height="14" fill="white"></rect>
      </clipPath>
    </defs>
  </symbol>
  <symbol fill="none" xmlns="http://www.w3.org/2000/svg" viewBox="0 0 20 20" id="settings">
    <path d="M12.9163 9.99967C12.9163 11.6105 11.6105 12.9163 9.99967 12.9163C8.38884 12.9163 7.08301 11.6105 7.08301 9.99967C7.08301 8.38884 8.38884 7.08301 9.99967 7.08301C11.6105 7.08301 12.9163 8.38884 12.9163 9.99967Z" stroke="currentColor" stroke-width="1.5"></path>
    <path d="M17.3497 11.7946C17.879 11.6206 18.1437 11.5336 18.2387 11.4024C18.3337 11.2711 18.3337 11.0603 18.3337 10.6387V9.36071C18.3337 8.93906 18.3337 8.72824 18.2387 8.59703C18.1437 8.46581 17.879 8.37884 17.3497 8.20489C15.8721 7.71933 14.9475 6.17548 15.2485 4.66538C15.3597 4.10785 15.4153 3.82909 15.348 3.68203C15.2808 3.53497 15.0965 3.43036 14.7281 3.22115L13.5807 2.56972C13.218 2.3638 13.0367 2.26084 12.8764 2.27813C12.7161 2.29541 12.512 2.47858 12.1037 2.8449C10.9194 3.90743 9.0826 3.90738 7.89831 2.84482C7.49001 2.4785 7.28586 2.29534 7.12558 2.27805C6.96529 2.26076 6.78394 2.36372 6.42125 2.56964L5.27391 3.22107C4.90546 3.43027 4.72124 3.53486 4.654 3.6819C4.58676 3.82894 4.64229 4.10773 4.75335 4.66532C5.05416 6.17548 4.12886 7.71938 2.65098 8.20492C2.12167 8.37882 1.85702 8.46576 1.762 8.59699C1.66699 8.72821 1.66699 8.93904 1.66699 9.3607L1.66699 10.6387C1.66699 11.0604 1.66699 11.2712 1.76199 11.4024C1.85699 11.5336 2.12165 11.6206 2.65097 11.7945C4.12856 12.2801 5.05313 13.8239 4.7521 15.3341C4.64097 15.8916 4.5854 16.1703 4.65263 16.3174C4.71987 16.4645 4.90411 16.5691 5.27259 16.7783L6.41994 17.4297C6.78265 17.6356 6.96401 17.7386 7.12432 17.7213C7.28463 17.704 7.48873 17.5208 7.89694 17.1545C9.08191 16.091 10.9201 16.0909 12.105 17.1544C12.5132 17.5208 12.7173 17.7039 12.8777 17.7212C13.038 17.7385 13.2193 17.6356 13.582 17.4296L14.7294 16.7782C15.0979 16.569 15.2821 16.4644 15.3494 16.3173C15.4166 16.1702 15.361 15.8915 15.2498 15.334C14.9486 13.8239 15.8724 12.2802 17.3497 11.7946Z" stroke="currentColor" stroke-width="1.5" stroke-linecap="round"></path>
  </symbol>
  <symbol fill="none" xmlns="http://www.w3.org/2000/svg" viewBox="0 0 20 20" id="user-group">
    <path d="M17.3117 15C17.9361 15 18.4328 14.6071 18.8787 14.0576C19.7916 12.9329 18.2928 12.034 17.7211 11.5938C17.14 11.1463 16.4912 10.8928 15.8333 10.8333M15 9.16667C16.1506 9.16667 17.0833 8.23393 17.0833 7.08333C17.0833 5.93274 16.1506 5 15 5" stroke="currentColor" stroke-width="1.5" stroke-linecap="round"></path>
    <path d="M2.68797 15C2.06355 15 1.5669 14.6071 1.12096 14.0576C0.208082 12.9329 1.7069 12.034 2.27855 11.5938C2.85965 11.1463 3.50849 10.8928 4.16634 10.8333M4.58301 9.16667C3.43241 9.16667 2.49967 8.23393 2.49967 7.08333C2.49967 5.93274 3.43241 5 4.58301 5" stroke="currentColor" stroke-width="1.5" stroke-linecap="round"></path>
    <path d="M6.73618 12.593C5.8847 13.1195 3.65216 14.1946 5.01192 15.5398C5.67616 16.197 6.41594 16.667 7.34603 16.667H12.6533C13.5834 16.667 14.3232 16.197 14.9874 15.5398C16.3472 14.1946 14.1147 13.1195 13.2632 12.593C11.2665 11.3583 8.73289 11.3583 6.73618 12.593Z" stroke="currentColor" stroke-width="1.5" stroke-linecap="round" stroke-linejoin="round"></path>
    <path d="M12.9163 6.24967C12.9163 7.86051 11.6105 9.16634 9.99967 9.16634C8.38884 9.16634 7.08301 7.86051 7.08301 6.24967C7.08301 4.63884 8.38884 3.33301 9.99967 3.33301C11.6105 3.33301 12.9163 4.63884 12.9163 6.24967Z" stroke="currentColor" stroke-width="1.5"></path>
  </symbol>

  
  <symbol fill="none" xmlns="http://www.w3.org/2000/svg" viewBox="0 0 24 24" id="moneys">
    <path opacity="0.4" d="M19.3009 7.91949V13.0695C19.3009 16.1495 17.5409 17.4695 14.9009 17.4695H6.11093C5.66093 17.4695 5.23093 17.4295 4.83093 17.3395C4.58093 17.2995 4.34094 17.2295 4.12094 17.1495C2.62094 16.5895 1.71094 15.2895 1.71094 13.0695V7.91949C1.71094 4.83949 3.47093 3.51953 6.11093 3.51953H14.9009C17.1409 3.51953 18.7509 4.46953 19.1809 6.63953C19.2509 7.03953 19.3009 7.44949 19.3009 7.91949Z" fill="currentColor"></path>
    <path d="M22.3001 10.9196V16.0696C22.3001 19.1496 20.5401 20.4696 17.9001 20.4696H9.11008C8.37008 20.4696 7.70009 20.3697 7.12009 20.1497C5.93009 19.7097 5.12008 18.7997 4.83008 17.3397C5.23008 17.4297 5.66008 17.4696 6.11008 17.4696H14.9001C17.5401 17.4696 19.3001 16.1496 19.3001 13.0696V7.91962C19.3001 7.44962 19.2601 7.02965 19.1801 6.63965C21.0801 7.03965 22.3001 8.37962 22.3001 10.9196Z" fill="currentColor"></path>
    <path d="M10.4994 13.1404C11.9574 13.1404 13.1394 11.9584 13.1394 10.5004C13.1394 9.04233 11.9574 7.86035 10.4994 7.86035C9.04136 7.86035 7.85938 9.04233 7.85938 10.5004C7.85938 11.9584 9.04136 13.1404 10.4994 13.1404Z" fill="currentColor"></path>
    <path d="M4.7793 8.25C4.3693 8.25 4.0293 8.59 4.0293 9V12C4.0293 12.41 4.3693 12.75 4.7793 12.75C5.1893 12.75 5.5293 12.41 5.5293 12V9C5.5293 8.59 5.1993 8.25 4.7793 8.25Z" fill="currentColor"></path>
    <path d="M16.2109 8.25C15.8009 8.25 15.4609 8.59 15.4609 9V12C15.4609 12.41 15.8009 12.75 16.2109 12.75C16.6209 12.75 16.9609 12.41 16.9609 12V9C16.9609 8.59 16.6309 8.25 16.2109 8.25Z" fill="currentColor"></path>
  </symbol>

  
  <symbol fill="none" xmlns="http://www.w3.org/2000/svg" viewBox="0 0 18 18" id="chevron-left">
    <path d="M11.25 13.5L6.75 9L11.25 4.5" stroke="currentColor" stroke-width="1.5" stroke-linecap="round" stroke-linejoin="round"></path>
  </symbol>


  
  <symbol fill="none" xmlns="http://www.w3.org/2000/svg" viewBox="0 0 20 20" id="chevron-right">
    <path d="M7.5 5L11.7929 9.29289C12.1262 9.62623 12.2929 9.79289 12.2929 10C12.2929 10.2071 12.1262 10.3738 11.7929 10.7071L7.5 15" stroke="currentColor" stroke-width="1.5" stroke-linecap="round" stroke-linejoin="round"></path>
  </symbol>

  
  <symbol fill="none" xmlns="http://www.w3.org/2000/svg" viewBox="0 0 20 20" id="import">
    <path d="M9.99996 18.9577C5.05829 18.9577 1.04163 14.941 1.04163 9.99935C1.04163 5.05768 5.05829 1.04102 9.99996 1.04102C10.3416 1.04102 10.625 1.32435 10.625 1.66602C10.625 2.00768 10.3416 2.29102 9.99996 2.29102C5.74996 2.29102 2.29163 5.74935 2.29163 9.99935C2.29163 14.2493 5.74996 17.7077 9.99996 17.7077C14.25 17.7077 17.7083 14.2493 17.7083 9.99935C17.7083 9.65768 17.9916 9.37435 18.3333 9.37435C18.675 9.37435 18.9583 9.65768 18.9583 9.99935C18.9583 14.941 14.9416 18.9577 9.99996 18.9577Z" fill="currentColor"></path>
    <path d="M11.5 9.12422C11.3417 9.12422 11.1833 9.06589 11.0583 8.94089C10.8167 8.69922 10.8167 8.29922 11.0583 8.05755L17.8917 1.22422C18.1333 0.982552 18.5333 0.982552 18.775 1.22422C19.0167 1.46589 19.0167 1.86589 18.775 2.10755L11.9417 8.94089C11.825 9.05755 11.6667 9.12422 11.5 9.12422Z" fill="currentColor"></path>
    <path d="M14.8584 9.79258H10.8334C10.4917 9.79258 10.2084 9.50924 10.2084 9.16758V5.14258C10.2084 4.80091 10.4917 4.51758 10.8334 4.51758C11.175 4.51758 11.4584 4.80091 11.4584 5.14258V8.54258H14.8584C15.2 8.54258 15.4834 8.82591 15.4834 9.16758C15.4834 9.50924 15.2 9.79258 14.8584 9.79258Z" fill="currentColor"></path>
  </symbol>
  <symbol fill="none" xmlns="http://www.w3.org/2000/svg" viewBox="0 0 20 20" id="wallet-add">
    <path d="M12.0833 13.4922H7.91663C7.57496 13.4922 7.29163 13.2089 7.29163 12.8672C7.29163 12.5255 7.57496 12.2422 7.91663 12.2422H12.0833C12.425 12.2422 12.7083 12.5255 12.7083 12.8672C12.7083 13.2089 12.425 13.4922 12.0833 13.4922Z" fill="currentColor"></path>
    <path d="M10 15.6257C9.65833 15.6257 9.375 15.3423 9.375 15.0007V10.834C9.375 10.4923 9.65833 10.209 10 10.209C10.3417 10.209 10.625 10.4923 10.625 10.834V15.0007C10.625 15.3423 10.3417 15.6257 10 15.6257Z" fill="currentColor"></path>
    <path d="M4.33336 8.71591C4.17503 8.71591 4.0167 8.64925 3.8917 8.53258C3.7167 8.35758 3.65836 8.08258 3.75836 7.84925L5.30836 4.14925C5.3417 4.07425 5.35836 4.02425 5.38336 3.98258C6.6167 1.14091 8.1917 0.449246 10.975 1.51591C11.1334 1.57425 11.2584 1.69925 11.325 1.85758C11.3917 2.01591 11.3917 2.19091 11.325 2.34925L8.88336 8.01591C8.78336 8.24091 8.55836 8.39091 8.30836 8.39091H5.93336C5.45836 8.39091 5.00836 8.48258 4.57503 8.66591C4.50003 8.69925 4.4167 8.71591 4.33336 8.71591ZM8.8417 2.29091C7.80836 2.29091 7.17503 2.96591 6.5167 4.49925C6.50836 4.52425 6.4917 4.54925 6.48336 4.57425L5.3917 7.16591C5.57503 7.14925 5.75003 7.14091 5.93336 7.14091H7.8917L9.90003 2.47425C9.50836 2.34925 9.15836 2.29091 8.8417 2.29091Z" fill="currentColor"></path>
    <path d="M15.2417 8.55843C15.1833 8.55843 15.1167 8.5501 15.0583 8.53343C14.75 8.44177 14.4083 8.39177 14.0583 8.39177H8.30832C8.09999 8.39177 7.89999 8.28343 7.78332 8.10843C7.67499 7.93343 7.64999 7.70844 7.73332 7.51677L10.15 1.90843C10.275 1.60843 10.6417 1.40843 10.95 1.50843C11.05 1.54177 11.1417 1.58343 11.2417 1.6251L13.2083 2.4501C14.3583 2.9251 15.125 3.4251 15.625 4.0251C15.725 4.14177 15.8083 4.26677 15.8833 4.39177C15.975 4.53343 16.0583 4.70844 16.1167 4.88344C16.1417 4.94177 16.1833 5.0501 16.2083 5.16677C16.4417 5.9501 16.325 6.9251 15.825 8.1751C15.725 8.40843 15.4917 8.55843 15.2417 8.55843ZM9.25832 7.14177H14.0667C14.3333 7.14177 14.5917 7.16677 14.85 7.20843C15.0833 6.48343 15.1333 5.9251 15 5.4751C14.9833 5.4001 14.9667 5.36677 14.9583 5.33344C14.9083 5.2001 14.875 5.1251 14.8333 5.05843C14.775 4.96677 14.7333 4.89177 14.6667 4.81677C14.3083 4.38344 13.675 3.98344 12.7333 3.6001L11.0833 2.90843L9.25832 7.14177Z" fill="currentColor"></path>
    <path d="M13.25 18.9592H6.75C6.51667 18.9592 6.3 18.9426 6.08333 18.9176C3.15833 18.7176 1.49167 17.0509 1.29167 14.0926C1.26667 13.9092 1.25 13.6842 1.25 13.4592V11.8342C1.25 9.95924 2.36667 8.26758 4.09167 7.51758C4.675 7.26758 5.3 7.14258 5.94167 7.14258H14.075C14.55 7.14258 15.0083 7.20925 15.4333 7.34258C17.3917 7.93425 18.7667 9.78424 18.7667 11.8342V13.4592C18.7667 13.6426 18.7583 13.8176 18.75 13.9842C18.5667 17.2426 16.6667 18.9592 13.25 18.9592ZM5.93333 8.39258C5.45833 8.39258 5.00833 8.48424 4.575 8.66758C3.30833 9.21758 2.49167 10.4592 2.49167 11.8342V13.4592C2.49167 13.6342 2.50833 13.8092 2.525 13.9759C2.68333 16.3509 3.85 17.5176 6.19167 17.6759C6.4 17.7009 6.56667 17.7176 6.74167 17.7176H13.2417C15.9917 17.7176 17.3417 16.5092 17.475 13.9259C17.4833 13.7759 17.4917 13.6259 17.4917 13.4592V11.8342C17.4917 10.3259 16.4833 8.97591 15.05 8.53424C14.7417 8.44258 14.4 8.39258 14.05 8.39258H5.93333Z" fill="currentColor"></path>
    <path d="M1.8667 12.4591C1.52503 12.4591 1.2417 12.1758 1.2417 11.8341V9.39248C1.2417 6.76748 3.10003 4.50081 5.6667 4.00081C5.8917 3.95914 6.12503 4.04248 6.27503 4.21748C6.4167 4.39248 6.45837 4.64248 6.3667 4.85081L4.90837 8.33414C4.8417 8.48414 4.72503 8.60081 4.58337 8.66748C3.3167 9.21748 2.50003 10.4591 2.50003 11.8341C2.4917 12.1758 2.2167 12.4591 1.8667 12.4591ZM4.6667 5.68414C3.60003 6.28414 2.82503 7.33414 2.58337 8.55914C2.95003 8.18414 3.37503 7.86748 3.85837 7.63414L4.6667 5.68414Z" fill="currentColor"></path>
    <path d="M18.1333 12.4581C17.7917 12.4581 17.5083 12.1748 17.5083 11.8331C17.5083 10.3248 16.5 8.97481 15.0667 8.53315C14.9 8.48315 14.7583 8.36648 14.6833 8.20815C14.6083 8.04982 14.6 7.86648 14.6667 7.70815C15.0583 6.73315 15.1583 6.02481 15 5.47481C14.9833 5.39981 14.9667 5.36648 14.9583 5.33315C14.85 5.09148 14.9083 4.80815 15.1 4.62482C15.2917 4.44148 15.5833 4.39981 15.8167 4.52481C17.6333 5.47481 18.7583 7.34148 18.7583 9.39148V11.8331C18.7583 12.1748 18.475 12.4581 18.1333 12.4581ZM16.0417 7.57481C16.5667 7.81648 17.0333 8.15815 17.425 8.56648C17.2667 7.74981 16.875 7.00815 16.3 6.42481C16.2583 6.77481 16.175 7.15815 16.0417 7.57481Z" fill="currentColor"></path>
  </symbol>
  <symbol fill="none" xmlns="http://www.w3.org/2000/svg" viewBox="0 0 20 20" id="wallet-minus">
    <path d="M12.0833 13.959H7.91663C7.57496 13.959 7.29163 13.6757 7.29163 13.334C7.29163 12.9923 7.57496 12.709 7.91663 12.709H12.0833C12.425 12.709 12.7083 12.9923 12.7083 13.334C12.7083 13.6757 12.425 13.959 12.0833 13.959Z" fill="currentColor"></path>
    <path d="M4.33336 8.71591C4.17503 8.71591 4.0167 8.64925 3.8917 8.53258C3.7167 8.35758 3.65836 8.08258 3.75836 7.84925L5.30836 4.14925C5.3417 4.07425 5.35836 4.02425 5.38336 3.98258C6.6167 1.14091 8.1917 0.449246 10.975 1.51591C11.1334 1.57425 11.2584 1.69925 11.325 1.85758C11.3917 2.01591 11.3917 2.19091 11.325 2.34925L8.88336 8.01591C8.78336 8.24091 8.55836 8.39091 8.30836 8.39091H5.93336C5.45836 8.39091 5.00836 8.48258 4.57503 8.66591C4.50003 8.69925 4.4167 8.71591 4.33336 8.71591ZM8.8417 2.29091C7.80836 2.29091 7.17503 2.96591 6.5167 4.49925C6.50836 4.52425 6.4917 4.54925 6.48336 4.57425L5.3917 7.16591C5.57503 7.14925 5.75003 7.14091 5.93336 7.14091H7.8917L9.90003 2.47425C9.50836 2.34925 9.15836 2.29091 8.8417 2.29091Z" fill="currentColor"></path>
    <path d="M15.2417 8.55843C15.1833 8.55843 15.1167 8.5501 15.0583 8.53343C14.75 8.44177 14.4083 8.39177 14.0583 8.39177H8.30832C8.09999 8.39177 7.89999 8.28343 7.78332 8.10843C7.67499 7.93343 7.64999 7.70844 7.73332 7.51677L10.15 1.90843C10.275 1.60843 10.6333 1.40843 10.95 1.50843C11.05 1.54177 11.1417 1.58343 11.2417 1.6251L13.2083 2.4501C14.3583 2.9251 15.125 3.4251 15.625 4.0251C15.725 4.14177 15.8083 4.26677 15.8833 4.39177C15.975 4.53343 16.0583 4.70844 16.1167 4.88344C16.1417 4.94177 16.1833 5.0501 16.2083 5.16677C16.4417 5.9501 16.325 6.9251 15.825 8.1751C15.725 8.40843 15.4917 8.55843 15.2417 8.55843ZM9.25832 7.14177H14.0667C14.3333 7.14177 14.5917 7.16677 14.85 7.20843C15.0833 6.48343 15.1333 5.9251 15 5.4751C14.9833 5.4001 14.9667 5.36677 14.9583 5.33343C14.9083 5.2001 14.875 5.1251 14.8333 5.05844C14.775 4.96677 14.7333 4.89177 14.6667 4.81677C14.3083 4.38344 13.675 3.98344 12.7333 3.6001L11.0833 2.90843L9.25832 7.14177Z" fill="currentColor"></path>
    <path d="M13.25 18.9592H6.75C6.51667 18.9592 6.3 18.9426 6.08333 18.9176C3.15833 18.7176 1.49167 17.0509 1.29167 14.0926C1.26667 13.9092 1.25 13.6842 1.25 13.4592V11.8342C1.25 9.95924 2.36667 8.26758 4.09167 7.51758C4.675 7.26758 5.3 7.14258 5.94167 7.14258H14.075C14.55 7.14258 15.0083 7.20925 15.4333 7.34258C17.3917 7.93425 18.7667 9.78424 18.7667 11.8342V13.4592C18.7667 13.6426 18.7583 13.8176 18.75 13.9842C18.5667 17.2426 16.6667 18.9592 13.25 18.9592ZM5.93333 8.39258C5.45833 8.39258 5.00833 8.48424 4.575 8.66758C3.30833 9.21758 2.49167 10.4592 2.49167 11.8342V13.4592C2.49167 13.6342 2.50833 13.8092 2.525 13.9759C2.68333 16.3509 3.85 17.5176 6.19167 17.6759C6.4 17.7009 6.56667 17.7176 6.74167 17.7176H13.2417C15.9917 17.7176 17.3417 16.5092 17.475 13.9259C17.4833 13.7759 17.4917 13.6259 17.4917 13.4592V11.8342C17.4917 10.3259 16.4833 8.97591 15.05 8.53424C14.7417 8.44258 14.4 8.39258 14.05 8.39258H5.93333V8.39258Z" fill="currentColor"></path>
    <path d="M1.8667 12.4591C1.52503 12.4591 1.2417 12.1758 1.2417 11.8341V9.39248C1.2417 6.76748 3.10003 4.50081 5.6667 4.00081C5.8917 3.95914 6.12503 4.04248 6.27503 4.21748C6.4167 4.39248 6.45837 4.64248 6.3667 4.85081L4.90837 8.33414C4.8417 8.48414 4.72503 8.60081 4.58337 8.66748C3.3167 9.21748 2.50003 10.4591 2.50003 11.8341C2.4917 12.1758 2.2167 12.4591 1.8667 12.4591ZM4.6667 5.68414C3.60003 6.28414 2.82503 7.33414 2.58337 8.55914C2.95003 8.18414 3.37503 7.86748 3.85837 7.63414L4.6667 5.68414Z" fill="currentColor"></path>
    <path d="M18.1333 12.4581C17.7917 12.4581 17.5083 12.1748 17.5083 11.8331C17.5083 10.3248 16.5 8.97481 15.0667 8.53315C14.9 8.48315 14.7583 8.36648 14.6833 8.20815C14.6083 8.04982 14.6 7.86648 14.6667 7.70815C15.0583 6.73315 15.1583 6.02481 15 5.47481C14.9833 5.39981 14.9667 5.36648 14.9583 5.33315C14.85 5.09148 14.9083 4.80815 15.1 4.62482C15.2917 4.44148 15.5833 4.39981 15.8167 4.52481C17.6333 5.47481 18.7583 7.34148 18.7583 9.39148V11.8331C18.7583 12.1748 18.475 12.4581 18.1333 12.4581ZM16.0417 7.57481C16.5667 7.81648 17.0333 8.15815 17.425 8.56648C17.2667 7.74981 16.875 7.00815 16.3 6.42481C16.2583 6.77481 16.175 7.15815 16.0417 7.57481Z" fill="currentColor"></path>
  </symbol>

  
  <symbol fill="none" xmlns="http://www.w3.org/2000/svg" viewBox="0 0 20 20" id="chevron-down">
    <path d="M15 7.5L10.7071 11.7929C10.3738 12.1262 10.2071 12.2929 10 12.2929C9.79289 12.2929 9.62623 12.1262 9.29289 11.7929L5 7.5" stroke="currentColor" stroke-width="1.5" stroke-linecap="round" stroke-linejoin="round"></path>
  </symbol>

  
  <symbol fill="none" xmlns="http://www.w3.org/2000/svg" viewBox="0 0 14 14" id="dropdown">
    <path d="M3.5 7H10.5M1.75 3.5H12.25M5.25 10.5H8.75" stroke="currentColor" stroke-width="2" stroke-linecap="round" stroke-linejoin="round"></path>
  </symbol>

    
  <symbol fill="none" xmlns="http://www.w3.org/2000/svg" viewBox="0 0 18 18" id="export">
    <path d="M9 17.0625C4.5525 17.0625 0.9375 13.4475 0.9375 9C0.9375 4.5525 4.5525 0.9375 9 0.9375C9.3075 0.9375 9.5625 1.1925 9.5625 1.5C9.5625 1.8075 9.3075 2.0625 9 2.0625C5.175 2.0625 2.0625 5.175 2.0625 9C2.0625 12.825 5.175 15.9375 9 15.9375C12.825 15.9375 15.9375 12.825 15.9375 9C15.9375 8.6925 16.1925 8.4375 16.5 8.4375C16.8075 8.4375 17.0625 8.6925 17.0625 9C17.0625 13.4475 13.4475 17.0625 9 17.0625Z" fill="currentColor"></path>
    <path d="M9.75002 8.81219C9.60752 8.81219 9.46502 8.75969 9.35252 8.64719C9.13502 8.42969 9.13502 8.06969 9.35252 7.85219L15.5025 1.70219C15.72 1.48469 16.08 1.48469 16.2975 1.70219C16.515 1.91969 16.515 2.27969 16.2975 2.49719L10.1475 8.64719C10.035 8.75969 9.89252 8.81219 9.75002 8.81219Z" fill="currentColor"></path>
    <path d="M16.5 5.685C16.1925 5.685 15.9375 5.43 15.9375 5.1225V2.0625H12.8775C12.57 2.0625 12.315 1.8075 12.315 1.5C12.315 1.1925 12.57 0.9375 12.8775 0.9375H16.5C16.8075 0.9375 17.0625 1.1925 17.0625 1.5V5.1225C17.0625 5.43 16.8075 5.685 16.5 5.685Z" fill="currentColor"></path>
  </symbol>


    
  <symbol fill="none" xmlns="http://www.w3.org/2000/svg" viewBox="0 0 14 14" id="export-2">
    <g clip-path="url(#clip0_10452_3691)">
      <path d="M12.25 8.75V11.0833C12.25 11.3928 12.1271 11.6895 11.9083 11.9083C11.6895 12.1271 11.3928 12.25 11.0833 12.25H2.91667C2.60725 12.25 2.3105 12.1271 2.09171 11.9083C1.87292 11.6895 1.75 11.3928 1.75 11.0833V8.75M9.91667 4.66667L7 1.75M7 1.75L4.08333 4.66667M7 1.75V8.75" stroke="currentColor" stroke-width="2" stroke-linecap="round" stroke-linejoin="round"></path>
    </g>
    <defs>
      <clipPath id="clip0_10452_3691">
        <rect width="14" height="14" fill="white"></rect>
      </clipPath>
    </defs>
  </symbol>

  
  <symbol fill="none" xmlns="http://www.w3.org/2000/svg" viewBox="0 0 20 20" id="arrow-left">
    <path d="M15.8334 9.99935H4.16669M4.16669 9.99935L10 15.8327M4.16669 9.99935L10 4.16602" stroke="currentColor" stroke-width="1.67" stroke-linecap="round" stroke-linejoin="round"></path>
  </symbol>
  <symbol fill="none" xmlns="http://www.w3.org/2000/svg" viewBox="0 0 20 20" id="arrow-right">
    <path d="M4.16666 9.99935H15.8333M15.8333 9.99935L9.99999 4.16602M15.8333 9.99935L9.99999 15.8327" stroke="currentColor" stroke-width="1.67" stroke-linecap="round" stroke-linejoin="round"></path>
  </symbol>

  
  <symbol fill="none" xmlns="http://www.w3.org/2000/svg" viewBox="0 0 14 14" id="arrow-right-up">
    <path d="M4.08337 9.91732L9.91671 4.08398M9.91671 4.08398H4.08337M9.91671 4.08398V9.91732" stroke="currentColor" stroke-width="2" stroke-linecap="round" stroke-linejoin="round"></path>
  </symbol>

  
  <symbol fill="none" xmlns="http://www.w3.org/2000/svg" viewBox="0 0 24 24" id="people">
    <path opacity="0.4" d="M17.4297 2.5C18.6626 2.5 19.6848 3.4382 19.8076 4.64551L19.8203 4.88965C19.8106 6.1796 18.7963 7.22393 17.5225 7.26953C17.4569 7.26434 17.3917 7.26426 17.3262 7.26953C16.0516 7.22314 15.04 6.17737 15.04 4.88965C15.0402 3.57494 16.1072 2.50019 17.4297 2.5Z" fill="currentColor" stroke="currentColor"></path>
    <path opacity="0.4" d="M20.79 14.7004C19.67 15.4504 18.1 15.7304 16.65 15.5404C17.03 14.7204 17.23 13.8104 17.24 12.8504C17.24 11.8504 17.02 10.9004 16.6 10.0704C18.08 9.8704 19.65 10.1504 20.78 10.9004C22.36 11.9404 22.36 13.6504 20.79 14.7004Z" fill="currentColor"></path>
    <path opacity="0.4" d="M6.44002 7.77C6.51002 7.76 6.58002 7.76 6.65002 7.77C8.20002 7.72 9.43002 6.45 9.43002 4.89C9.43002 3.3 8.14002 2 6.54002 2C4.95002 2 3.65002 3.29 3.65002 4.89C3.66002 6.45 4.89002 7.72 6.44002 7.77Z" fill="currentColor"></path>
    <path opacity="0.4" d="M6.54999 12.8506C6.54999 13.8206 6.75999 14.7406 7.13999 15.5706C5.72999 15.7206 4.26 15.4206 3.18 14.7106C1.6 13.6606 1.6 11.9506 3.18 10.9006C4.25 10.1806 5.75999 9.89059 7.18 10.0506C6.77 10.8906 6.54999 11.8406 6.54999 12.8506Z" fill="currentColor"></path>
    <path d="M12.12 15.87C12.04 15.86 11.9501 15.86 11.8601 15.87C10.0201 15.81 8.55005 14.3 8.55005 12.44C8.55005 10.54 10.0801 9 11.9901 9C13.8901 9 15.43 10.54 15.43 12.44C15.43 14.3 13.97 15.81 12.12 15.87Z" fill="currentColor"></path>
    <path d="M8.87005 17.9406C7.36005 18.9506 7.36005 20.6106 8.87005 21.6106C10.59 22.7606 13.4101 22.7606 15.1301 21.6106C16.6401 20.6006 16.6401 18.9406 15.1301 17.9406C13.4201 16.7906 10.6 16.7906 8.87005 17.9406Z" fill="currentColor"></path>
  </symbol>
  <symbol fill="none" xmlns="http://www.w3.org/2000/svg" viewBox="0 0 24 24" id="personal-card">
    <path opacity="0.4" d="M18 3H6C3.79 3 2 4.78 2 6.97V17.03C2 19.22 3.79 21 6 21H18C20.21 21 22 19.22 22 17.03V6.97C22 4.78 20.21 3 18 3Z" fill="currentColor"></path>
    <path d="M14 7.75H19C19.1339 7.75 19.25 7.86614 19.25 8C19.25 8.13386 19.1339 8.25 19 8.25H14C13.8661 8.25 13.75 8.13386 13.75 8C13.75 7.86614 13.8661 7.75 14 7.75Z" fill="currentColor" stroke="currentColor"></path>
    <path d="M19 12.75H15C14.59 12.75 14.25 12.41 14.25 12C14.25 11.59 14.59 11.25 15 11.25H19C19.41 11.25 19.75 11.59 19.75 12C19.75 12.41 19.41 12.75 19 12.75Z" fill="currentColor"></path>
    <path d="M19 16.75H17C16.59 16.75 16.25 16.41 16.25 16C16.25 15.59 16.59 15.25 17 15.25H19C19.41 15.25 19.75 15.59 19.75 16C19.75 16.41 19.41 16.75 19 16.75Z" fill="currentColor"></path>
    <path d="M8.5 11.7899C9.77578 11.7899 10.81 10.7557 10.81 9.47992C10.81 8.20414 9.77578 7.16992 8.5 7.16992C7.22422 7.16992 6.19 8.20414 6.19 9.47992C6.19 10.7557 7.22422 11.7899 8.5 11.7899Z" fill="currentColor"></path>
    <path d="M9.30003 13.1098C8.77003 13.0598 8.22003 13.0598 7.69003 13.1098C6.01003 13.2698 4.66003 14.5998 4.50003 16.2798C4.49003 16.4198 4.53003 16.5598 4.63003 16.6598C4.73003 16.7598 4.86003 16.8298 5.00003 16.8298H12C12.14 16.8298 12.28 16.7698 12.37 16.6698C12.46 16.5698 12.51 16.4298 12.5 16.2898C12.33 14.5998 10.99 13.2698 9.30003 13.1098Z" fill="currentColor"></path>
  </symbol>

  
  <symbol fill="none" xmlns="http://www.w3.org/2000/svg" viewBox="0 0 18 18" id="exchange">
    <path d="M12.7325 14.625C14.5513 13.4157 15.75 11.3478 15.75 9C15.75 5.27208 12.7279 2.25 9 2.25C8.48446 2.25 7.98242 2.3078 7.5 2.41726M12.7325 14.625V12M12.7325 14.625H15.375M5.25 3.38666C3.44102 4.59755 2.25 6.65969 2.25 9C2.25 12.7279 5.27208 15.75 9 15.75C9.51554 15.75 10.0176 15.6922 10.5 15.5827M5.25 3.38666V6M5.25 3.38666H2.625" stroke="currentColor" stroke-width="1.5" stroke-linecap="round" stroke-linejoin="round"></path>
  </symbol>

  
  <symbol fill="none" xmlns="http://www.w3.org/2000/svg" viewBox="0 0 24 24" id="message-download">
    <path d="M13.5 3.03368C12.2812 2.97856 11.0318 2.99114 9.8294 3.07107C5.64639 3.34913 2.31441 6.72838 2.04024 10.9707C1.98659 11.8009 1.98659 12.6607 2.04024 13.4909C2.1401 15.036 2.82343 16.4666 3.62791 17.6746C4.09501 18.5203 3.78674 19.5758 3.30021 20.4978C2.94941 21.1626 2.77401 21.495 2.91484 21.7351C3.05568 21.9752 3.37026 21.9829 3.99943 21.9982C5.24367 22.0285 6.08268 21.6757 6.74868 21.1846C7.1264 20.9061 7.31527 20.7668 7.44544 20.7508C7.5756 20.7348 7.83177 20.8403 8.34401 21.0513C8.8044 21.2409 9.33896 21.3579 9.8294 21.3905C11.2536 21.4852 12.7435 21.4854 14.1706 21.3905C18.3536 21.1125 21.6856 17.7332 21.9598 13.4909C21.9809 13.164 21.9937 12.8325 21.9982 12.5" stroke="currentColor" stroke-width="1.5" stroke-linecap="round" stroke-linejoin="round"></path>
    <path d="M8.5 15H15.5M8.5 10H12" stroke="currentColor" stroke-width="1.5" stroke-linecap="round" stroke-linejoin="round"></path>
    <path d="M16 7.5C16.4915 8.0057 17.7998 10 18.5 10M21 7.5C20.5085 8.0057 19.2002 10 18.5 10M18.5 10V2" stroke="currentColor" stroke-width="1.5" stroke-linecap="round" stroke-linejoin="round"></path>
  </symbol>

  
  <symbol fill="none" xmlns="http://www.w3.org/2000/svg" viewBox="0 0 24 24" id="add-circle">
    <path d="M12 22C17.5 22 22 17.5 22 12C22 6.5 17.5 2 12 2C6.5 2 2 6.5 2 12C2 17.5 6.5 22 12 22Z" stroke="currentColor" stroke-width="1.5" stroke-linecap="round" stroke-linejoin="round"></path>
    <path d="M8 12H16" stroke="currentColor" stroke-width="1.5" stroke-linecap="round" stroke-linejoin="round"></path>
    <path d="M12 16V8" stroke="currentColor" stroke-width="1.5" stroke-linecap="round" stroke-linejoin="round"></path>
  </symbol>

  <symbol fill="none" xmlns="http://www.w3.org/2000/svg" viewBox="0 0 24 24" id="minus-circle">
    <path d="M11.9199 22C17.4199 22 21.9199 17.5 21.9199 12C21.9199 6.5 17.4199 2 11.9199 2C6.41992 2 1.91992 6.5 1.91992 12C1.91992 17.5 6.41992 22 11.9199 22Z" stroke="currentColor" stroke-width="1.5" stroke-linecap="round" stroke-linejoin="round"></path>
    <path d="M7.91992 12H15.9199" stroke="currentColor" stroke-width="1.5" stroke-linecap="round" stroke-linejoin="round"></path>
  </symbol>

  
  <symbol fill="none" xmlns="http://www.w3.org/2000/svg" viewBox="0 0 24 24" id="file-add">
    <path d="M13 2H13.2727C16.5339 2 18.1645 2 19.2969 2.79784C19.6214 3.02643 19.9094 3.29752 20.1523 3.60289C21 4.66867 21 6.20336 21 9.27273V11.8182C21 14.7814 21 16.2629 20.5311 17.4462C19.7772 19.3486 18.1829 20.8491 16.1616 21.5586C14.9044 22 13.3302 22 10.1818 22C8.38275 22 7.48322 22 6.76478 21.7478C5.60979 21.3424 4.69875 20.4849 4.26796 19.3979C4 18.7217 4 17.8751 4 16.1818V12" stroke="currentColor" stroke-width="1.5" stroke-linecap="round" stroke-linejoin="round"></path>
    <path d="M21 12C21 13.8409 19.5076 15.3333 17.6667 15.3333C17.0009 15.3333 16.216 15.2167 15.5686 15.3901C14.9935 15.5442 14.5442 15.9935 14.3901 16.5686C14.2167 17.216 14.3333 18.0009 14.3333 18.6667C14.3333 20.5076 12.8409 22 11 22" stroke="currentColor" stroke-width="1.5" stroke-linecap="round" stroke-linejoin="round"></path>
    <path d="M11 6L3 6M7 2V10" stroke="currentColor" stroke-width="1.5" stroke-linecap="round"></path>
  </symbol>


  <symbol fill="none" xmlns="http://www.w3.org/2000/svg" viewBox="0 0 20 20" id="document">
    <path opacity="0.4" d="M12.9516 1.59961H6.24761C3.33561 1.59961 1.59961 3.33561 1.59961 6.24761V12.9436C1.59961 15.8636 3.33561 17.5996 6.24761 17.5996H12.9436C15.8556 17.5996 17.5916 15.8636 17.5916 12.9516V6.24761C17.5996 3.33561 15.8636 1.59961 12.9516 1.59961Z" fill="currentColor"></path>
    <path d="M6.59961 7H12.5996C12.7066 7 12.7996 7.0923 12.7998 7.19922C12.7998 7.3063 12.7067 7.39941 12.5996 7.39941H6.59961C6.49269 7.39919 6.40039 7.30617 6.40039 7.19922C6.40062 7.09243 6.49282 7.00023 6.59961 7Z" fill="currentColor" stroke="currentColor" stroke-width="0.8"></path>
    <path d="M12.6 12.6004H6.6C6.272 12.6004 6 12.3284 6 12.0004C6 11.6724 6.272 11.4004 6.6 11.4004H12.6C12.928 11.4004 13.2 11.6724 13.2 12.0004C13.2 12.3284 12.928 12.6004 12.6 12.6004Z" fill="currentColor"></path>
  </symbol>

  
  <symbol fill="none" xmlns="http://www.w3.org/2000/svg" viewBox="0 0 24 24" id="money">
    <path opacity="0.4" d="M7 4H17C18.4234 4 19.5335 4.35572 20.2852 5.05371C21.0301 5.74547 21.5 6.84538 21.5 8.5V15.5C21.5 17.1546 21.0301 18.2545 20.2852 18.9463C19.5335 19.6443 18.4234 20 17 20H7C5.57665 20 4.46652 19.6443 3.71484 18.9463C2.96994 18.2545 2.5 17.1546 2.5 15.5V8.5C2.5 6.84538 2.96994 5.74547 3.71484 5.05371C4.46652 4.35572 5.57665 4 7 4Z" fill="currentColor" stroke="currentColor"></path>
    <path d="M12 15C13.6569 15 15 13.6569 15 12C15 10.3431 13.6569 9 12 9C10.3431 9 9 10.3431 9 12C9 13.6569 10.3431 15 12 15Z" fill="currentColor"></path>
    <path d="M4.5 10.75C4.09 10.75 3.75 10.41 3.75 10V8.5C3.75 6.71 5.21 5.25 7 5.25H8.5C8.91 5.25 9.25 5.59 9.25 6C9.25 6.41 8.91 6.75 8.5 6.75H7C6.04 6.75 5.25 7.54 5.25 8.5V10C5.25 10.41 4.91 10.75 4.5 10.75Z" fill="currentColor"></path>
    <path d="M19.5 10.75C19.09 10.75 18.75 10.41 18.75 10V8.5C18.75 7.54 17.96 6.75 17 6.75H15.5C15.09 6.75 14.75 6.41 14.75 6C14.75 5.59 15.09 5.25 15.5 5.25H17C18.79 5.25 20.25 6.71 20.25 8.5V10C20.25 10.41 19.91 10.75 19.5 10.75Z" fill="currentColor"></path>
    <path d="M8.5 18.75H7C5.21 18.75 3.75 17.29 3.75 15.5V14C3.75 13.59 4.09 13.25 4.5 13.25C4.91 13.25 5.25 13.59 5.25 14V15.5C5.25 16.46 6.04 17.25 7 17.25H8.5C8.91 17.25 9.25 17.59 9.25 18C9.25 18.41 8.91 18.75 8.5 18.75Z" fill="currentColor"></path>
    <path d="M17 18.75H15.5C15.09 18.75 14.75 18.41 14.75 18C14.75 17.59 15.09 17.25 15.5 17.25H17C17.96 17.25 18.75 16.46 18.75 15.5V14C18.75 13.59 19.09 13.25 19.5 13.25C19.91 13.25 20.25 13.59 20.25 14V15.5C20.25 17.29 18.79 18.75 17 18.75Z" fill="currentColor"></path>
  </symbol>

  
  <symbol fill="none" xmlns="http://www.w3.org/2000/svg" viewBox="0 0 20 20" id="arrow-circle-right">
    <path opacity="0.4" d="M10 18.3327C14.6024 18.3327 18.3334 14.6017 18.3334 9.99935C18.3334 5.39698 14.6024 1.66602 10 1.66602C5.39765 1.66602 1.66669 5.39698 1.66669 9.99935C1.66669 14.6017 5.39765 18.3327 10 18.3327Z" fill="currentColor"></path>
    <path d="M8.95 13.5668C8.79167 13.5668 8.63334 13.5085 8.50834 13.3835C8.26667 13.1418 8.26667 12.7418 8.50834 12.5001L11.0083 10.0001L8.50834 7.50013C8.26667 7.25846 8.26667 6.85846 8.50834 6.6168C8.75 6.37513 9.15 6.37513 9.39167 6.6168L12.3333 9.55846C12.575 9.80013 12.575 10.2001 12.3333 10.4418L9.39167 13.3835C9.26667 13.5085 9.10834 13.5668 8.95 13.5668Z" fill="currentColor"></path>
  </symbol>

  <svg width="0" height="0" class="hidden">
  <symbol fill="none" xmlns="http://www.w3.org/2000/svg" viewBox="0 0 14 14" id="plus">
    <path d="M6.99996 2.91797V11.0846M2.91663 7.0013H11.0833" stroke="currentColor" stroke-width="2" stroke-linecap="round" stroke-linejoin="round"></path>
  </symbol>


  <symbol fill="none" xmlns="http://www.w3.org/2000/svg" viewBox="0 0 16 16" id="delete">
    <path d="M13 3.66406L12.5868 10.3475C12.4813 12.055 12.4285 12.9088 12.0005 13.5226C11.7889 13.8261 11.5164 14.0823 11.2005 14.2747C10.5614 14.6641 9.70599 14.6641 7.99516 14.6641C6.28208 14.6641 5.42554 14.6641 4.78604 14.274C4.46987 14.0812 4.19733 13.8246 3.98579 13.5206C3.55792 12.9058 3.5063 12.0508 3.40307 10.3408L3 3.66406" stroke="currentColor" stroke-width="1.5" stroke-linecap="round"></path>
    <path d="M6 7.82031H10" stroke="currentColor" stroke-width="1.5" stroke-linecap="round"></path>
    <path d="M7 10.4336H9" stroke="currentColor" stroke-width="1.5" stroke-linecap="round"></path>
    <path d="M2 3.66536H14M10.7037 3.66536L10.2486 2.72652C9.94626 2.10287 9.7951 1.79105 9.53435 1.59657C9.47651 1.55343 9.41527 1.51506 9.35122 1.48183C9.06248 1.33203 8.71595 1.33203 8.02289 1.33203C7.31243 1.33203 6.95719 1.33203 6.66366 1.48811C6.59861 1.5227 6.53653 1.56263 6.47807 1.60748C6.2143 1.80983 6.06696 2.13307 5.77228 2.77954L5.36849 3.66536" stroke="currentColor" stroke-width="1.5" stroke-linecap="round"></path>
  </symbol>




</svg>