<svg width="20" height="20" viewBox="0 0 20 20" fill="none" xmlns="http://www.w3.org/2000/svg">
  <path d="M10 1.802C12.67 1.802 12.987 1.812 14.04 1.86C15.015 1.905 15.545 2.067 15.898 2.204C16.365 2.386 16.698 2.602 17.048 2.952C17.402 3.306 17.614 3.635 17.796 4.102C17.933 4.455 18.095 4.985 18.14 5.96C18.188 7.013 18.198 7.33 18.198 10C18.198 12.67 18.188 12.987 18.14 14.04C18.095 15.015 17.933 15.545 17.796 15.898C17.614 16.365 17.398 16.698 17.048 17.048C16.694 17.402 16.365 17.614 15.898 17.796C15.545 17.933 15.015 18.095 14.04 18.14C12.987 18.188 12.67 18.198 10 18.198C7.33 18.198 7.013 18.188 5.96 18.14C4.985 18.095 4.455 17.933 4.102 17.796C3.635 17.614 3.302 17.398 2.952 17.048C2.598 16.694 2.386 16.365 2.204 15.898C2.067 15.545 1.905 15.015 1.86 14.04C1.812 12.987 1.802 12.67 1.802 10C1.802 7.33 1.812 7.013 1.86 5.96C1.905 4.985 2.067 4.455 2.204 4.102C2.386 3.635 2.602 3.302 2.952 2.952C3.306 2.598 3.635 2.386 4.102 2.204C4.455 2.067 4.985 1.905 5.96 1.86C7.013 1.812 7.33 1.802 10 1.802ZM10 0C7.284 0 6.944 0.011 5.877 0.06C4.812 0.108 4.086 0.278 3.45 0.525C2.79 0.78 2.234 1.122 1.678 1.678C1.122 2.234 0.78 2.79 0.525 3.45C0.278 4.086 0.108 4.812 0.06 5.877C0.011 6.944 0 7.284 0 10C0 12.716 0.011 13.056 0.06 14.123C0.108 15.188 0.278 15.914 0.525 16.55C0.78 17.21 1.122 17.766 1.678 18.322C2.234 18.878 2.79 19.22 3.45 19.475C4.086 19.722 4.812 19.892 5.877 19.94C6.944 19.989 7.284 20 10 20C12.716 20 13.056 19.989 14.123 19.94C15.188 19.892 15.914 19.722 16.55 19.475C17.21 19.22 17.766 18.878 18.322 18.322C18.878 17.766 19.22 17.21 19.475 16.55C19.722 15.914 19.892 15.188 19.94 14.123C19.989 13.056 20 12.716 20 10C20 7.284 19.989 6.944 19.94 5.877C19.892 4.812 19.722 4.086 19.475 3.45C19.22 2.79 18.878 2.234 18.322 1.678C17.766 1.122 17.21 0.78 16.55 0.525C15.914 0.278 15.188 0.108 14.123 0.06C13.056 0.011 12.716 0 10 0Z" fill="#98A2B3"/>
  <path d="M10 4.865C7.164 4.865 4.865 7.164 4.865 10C4.865 12.836 7.164 15.135 10 15.135C12.836 15.135 15.135 12.836 15.135 10C15.135 7.164 12.836 4.865 10 4.865ZM10 13.333C8.159 13.333 6.667 11.841 6.667 10C6.667 8.159 8.159 6.667 10 6.667C11.841 6.667 13.333 8.159 13.333 10C13.333 11.841 11.841 13.333 10 13.333Z" fill="#98A2B3"/>
  <path d="M16.538 4.662C16.538 5.326 16 5.865 15.336 5.865C14.672 5.865 14.133 5.326 14.133 4.662C14.133 3.998 14.672 3.46 15.336 3.46C16 3.46 16.538 3.998 16.538 4.662Z" fill="#98A2B3"/>
</svg>
