<svg width="80" height="80" viewBox="0 0 80 80" fill="none" xmlns="http://www.w3.org/2000/svg">
<path d="M19.0712 47.353H8.8464C6.404 47.353 4.1928 46.5306 2.5912 45.1994C0.9904 43.869 0 42.0298 0 39.9986C0 35.9378 3.9608 32.645 8.8464 32.645H9.44C9.5192 32.645 9.5992 32.6442 9.6776 32.6426C10.6952 38.7354 14.18 43.993 19.0712 47.353Z" fill="url(#paint0_linear_11179_37046)"/>
<path d="M31.6937 11.2051C24.9697 11.2051 19.1193 14.9475 16.1129 20.4627C17.4681 21.7547 18.2881 23.4427 18.2881 25.2915C18.2881 27.9147 16.6345 30.2171 14.1465 31.5187C15.3953 40.0907 22.7761 46.6747 31.6937 46.6747C41.4897 46.6747 49.4281 38.7339 49.4281 28.9403C49.4281 19.1467 41.4897 11.2059 31.6937 11.2059V11.2051ZM39.9985 38.2755C39.9985 38.8883 39.5009 39.3859 38.8881 39.3859H24.5009C23.8865 39.3859 23.3889 38.8883 23.3889 38.2755V19.6027C23.3889 18.9899 23.8865 18.4923 24.5009 18.4923H34.4609C34.6217 18.4923 34.7777 18.5267 34.9217 18.5931C35.0417 18.6467 35.1513 18.7235 35.2465 18.8179L39.6737 23.2451C39.8281 23.3995 39.9329 23.5955 39.9761 23.8059C39.9921 23.8803 39.9993 23.9539 39.9993 24.0299V38.2747L39.9985 38.2755Z" fill="url(#paint1_linear_11179_37046)"/>
<path d="M60.0104 54.706C60.0104 56.7372 61.0008 58.5756 62.6024 59.906C64.2032 61.2364 66.4144 62.0604 68.8584 62.0604H71.152C73.5944 62.0604 75.8056 62.8836 77.4072 64.214C79.008 65.5444 79.9992 67.3828 79.9992 69.414C79.9992 73.474 76.0376 76.7668 71.152 76.7668H8.8464C6.404 76.7668 4.1928 75.9436 2.5912 74.6124C0.9904 73.282 0 71.4444 0 69.414C0 65.3524 3.9608 62.0604 8.8464 62.0604H20.668C21.7672 62.2828 22.6808 62.41 23.276 62.4796C23.7152 62.5308 24.1312 62.2724 24.2784 61.8556L24.4488 61.3748H24.4496C25.6344 60.9164 26.6752 60.2444 27.5048 59.4196C27.316 59.8308 27.092 60.3004 26.8288 60.8348C25.6 63.3316 23.096 64.818 21.916 65.4076C21.5384 65.5964 21.3336 66.0148 21.412 66.4292L22.3864 71.542C22.4792 72.0252 22.9264 72.3588 23.416 72.306C24.8344 72.1524 27.8232 71.606 31.1656 69.6692C34.6928 67.6252 36.3376 64.3652 36.9272 62.9068C37.0984 62.4828 36.9416 61.9972 36.5552 61.7524L29.592 57.3524C29.4184 57.2428 29.2248 57.1972 29.0368 57.2076C29.3768 56.4268 29.5616 55.5844 29.5616 54.7052C29.5616 53.3604 29.1272 52.0996 28.3672 51.0156C29.452 51.1788 30.5632 51.2628 31.6944 51.2628C34.8576 51.2628 37.8664 50.6052 40.5928 49.4188L41.1248 50.1124C41.8312 51.0332 42.976 51.4188 44.0432 51.202C45.9424 54.8716 50.976 64.2052 54.928 68.0092C59.8984 72.7956 64.9544 68.6516 62.7936 63.5764C60.8288 58.9572 52.0192 50.05 48.9952 47.074C49.256 46.202 49.1088 45.2228 48.5136 44.4452L48.172 43.9996C51.8024 40.03 54.0168 34.7444 54.0168 28.9404C54.0168 16.6124 44.0224 6.61802 31.6944 6.61802C23.2304 6.61802 15.8664 11.3292 12.0816 18.2716C11.2472 18.0548 10.36 17.938 9.44 17.938H8.8464C6.404 17.938 4.1928 17.114 2.5912 15.7836C0.9904 14.454 0 12.6156 0 10.5852C0 6.52362 3.9608 3.23242 8.8464 3.23242H71.1528C73.5952 3.23242 75.8064 4.05482 77.408 5.38602C79.0088 6.71642 80 8.55402 80 10.5852C80 14.646 76.0384 17.9388 71.1528 17.9388H65.1288C60.2424 17.9388 56.2816 21.2308 56.2816 25.2924C56.2816 26.8604 56.872 28.3124 57.8776 29.5052C57.8776 29.5156 57.8776 29.5276 57.8768 29.538C57.8752 29.6044 57.872 29.6716 57.8696 29.7388C57.868 29.7788 57.8664 29.818 57.864 29.8588C57.8608 29.9324 57.8568 30.006 57.8528 30.0812C57.8512 30.1164 57.8496 30.1516 57.8472 30.1868C57.8408 30.298 57.8336 30.41 57.8264 30.5244C57.8184 30.6444 57.8088 30.7644 57.7968 30.8836C57.7936 30.9236 57.788 30.9628 57.7832 31.0028C57.7744 31.082 57.7656 31.162 57.7552 31.2404C57.7488 31.2884 57.7416 31.3348 57.7352 31.3828C57.7248 31.4532 57.7152 31.5236 57.7032 31.5948C57.6952 31.6452 57.6856 31.6956 57.6768 31.7444C57.6656 31.8116 57.6536 31.8788 57.6408 31.9452C57.6312 31.9964 57.6208 32.0476 57.6096 32.0996C57.596 32.1644 57.5832 32.2284 57.568 32.2932C57.5568 32.3452 57.544 32.3972 57.532 32.4492C57.5176 32.5116 57.5032 32.5756 57.4872 32.638C57.4736 32.69 57.46 32.742 57.4464 32.794C57.4304 32.8556 57.4136 32.9172 57.3968 32.978C57.3816 33.03 57.3672 33.082 57.352 33.134C57.3344 33.1948 57.3168 33.2548 57.2984 33.3156C57.2824 33.3668 57.2664 33.4188 57.2496 33.47C57.2312 33.53 57.212 33.5892 57.192 33.6492C57.1752 33.6996 57.1576 33.7508 57.14 33.802C57.12 33.8612 57.0992 33.9196 57.0792 33.9772C57.0608 34.0276 57.0432 34.0788 57.0248 34.1284C57.0024 34.1868 56.9816 34.2452 56.9592 34.3028C56.94 34.3524 56.9216 34.402 56.9016 34.45C56.8784 34.5084 56.856 34.5652 56.8328 34.6228C56.8128 34.6708 56.7928 34.7188 56.7736 34.7668C56.7496 34.8244 56.7248 34.8812 56.7 34.9388C56.68 34.9852 56.66 35.0324 56.64 35.0788C56.6144 35.1356 56.5888 35.1916 56.5632 35.2484C56.5432 35.294 56.5224 35.3404 56.5016 35.3852C56.4752 35.4428 56.4488 35.498 56.4216 35.5548C56.4016 35.5988 56.3808 35.6428 56.36 35.686C56.332 35.7436 56.3032 35.7996 56.2752 35.8564C56.2552 35.898 56.2344 35.9396 56.2144 35.9804C56.1848 36.0396 56.1536 36.098 56.1232 36.1556C56.104 36.1932 56.084 36.2316 56.0648 36.2684C56.0296 36.3356 55.9936 36.4004 55.9584 36.4668C55.9432 36.494 55.9288 36.522 55.9144 36.55C55.8632 36.6428 55.812 36.7348 55.7608 36.8252C55.7496 36.8452 55.7368 36.866 55.7256 36.886C55.6856 36.9556 55.6464 37.0252 55.6056 37.0932C55.5864 37.1268 55.5664 37.1588 55.5472 37.1908C55.5144 37.2452 55.4824 37.3004 55.4504 37.354C55.428 37.39 55.4064 37.4252 55.3848 37.4604C55.3536 37.51 55.324 37.5604 55.2928 37.6084C55.2696 37.6444 55.248 37.6804 55.2248 37.7172C55.196 37.7628 55.1664 37.8092 55.1376 37.8548C55.1136 37.8908 55.0896 37.9268 55.0664 37.9644C55.0384 38.0076 55.0096 38.0508 54.9824 38.0932C54.9584 38.1292 54.9344 38.1644 54.9112 38.1996C54.884 38.2412 54.856 38.2836 54.8272 38.3244C54.804 38.3596 54.7816 38.3932 54.7576 38.4268C54.7304 38.4676 54.7032 38.5076 54.6744 38.5468C54.6512 38.5804 54.6288 38.614 54.6056 38.6468C54.5784 38.686 54.552 38.7236 54.5248 38.7604C54.5016 38.7932 54.4792 38.8252 54.456 38.8572C54.4304 38.8932 54.404 38.9292 54.3776 38.966C54.3552 38.9972 54.3336 39.0268 54.3104 39.058C54.2848 39.0932 54.2592 39.1276 54.2336 39.162C54.2112 39.1916 54.1896 39.2212 54.168 39.2492C54.1424 39.2828 54.1176 39.3156 54.0928 39.3484C54.072 39.3764 54.0504 39.4052 54.0304 39.4324C53.9456 39.542 53.8648 39.6468 53.7864 39.746C53.3144 40.3396 53.5008 41.2164 54.1728 41.5676L56.4784 42.7716L61.3864 45.3356L61.5544 45.4228C61.64 45.4676 61.7424 45.462 61.8224 45.4076C61.868 45.3764 61.9256 45.3364 61.9936 45.286C61.9936 45.286 61.9952 45.2844 61.996 45.2844C62.0192 45.2668 62.0424 45.2484 62.068 45.2292C62.0696 45.2284 62.0712 45.2268 62.0736 45.226C62.0984 45.2068 62.1248 45.186 62.1512 45.1644C62.1544 45.162 62.1584 45.1588 62.1616 45.1564C62.188 45.1356 62.216 45.1124 62.2448 45.0892C62.2496 45.0844 62.2544 45.0812 62.2592 45.0772C62.2872 45.054 62.3176 45.0292 62.3472 45.0028C62.3528 44.998 62.3576 44.994 62.3624 44.9892C62.3944 44.9628 62.4256 44.9356 62.4584 44.906C62.4632 44.9012 62.4672 44.898 62.472 44.894C62.5064 44.8636 62.5416 44.8324 62.5768 44.7996C62.58 44.7972 62.5832 44.794 62.5856 44.7916C62.6224 44.7572 62.6608 44.722 62.6992 44.6852C62.7008 44.6844 62.7016 44.6836 62.704 44.682C62.7432 44.646 62.7824 44.6068 62.8232 44.5676C62.828 44.5628 62.832 44.5588 62.8376 44.554C62.8768 44.5148 62.916 44.4756 62.9568 44.434C62.964 44.4276 62.9704 44.422 62.9768 44.4148C63.0168 44.374 63.0576 44.3316 63.0992 44.2876C63.1064 44.2804 63.1136 44.2732 63.12 44.2652C63.1624 44.2212 63.2048 44.1756 63.2488 44.1284C63.2552 44.1204 63.2624 44.1132 63.2688 44.106C63.3136 44.0572 63.3584 44.0068 63.4056 43.9548C63.4104 43.9492 63.4144 43.9444 63.42 43.9388C63.4688 43.8844 63.5176 43.8276 63.568 43.7692C63.6184 43.7108 63.6696 43.6508 63.7208 43.59C63.7264 43.5836 63.7312 43.578 63.7368 43.5708C63.7864 43.5116 63.836 43.4516 63.8856 43.3892C63.8936 43.3796 63.9008 43.3708 63.9088 43.3612C63.9584 43.3004 64.0088 43.2364 64.06 43.1724C64.068 43.1612 64.0768 43.15 64.0856 43.1388C64.136 43.074 64.1872 43.0076 64.2392 42.9396C64.2472 42.9284 64.256 42.9172 64.264 42.906C64.3168 42.8364 64.3696 42.7652 64.424 42.6908C64.4312 42.682 64.4384 42.6724 64.444 42.6636C64.5008 42.5868 64.5568 42.5084 64.6136 42.4284C64.616 42.4236 64.6192 42.4204 64.6216 42.4172C64.6792 42.3364 64.736 42.2532 64.7944 42.1684C64.7992 42.162 64.8032 42.1548 64.808 42.1492C64.8656 42.0652 64.9224 41.9796 64.9808 41.8924C64.9888 41.8804 64.9968 41.8684 65.0048 41.8564C65.0616 41.7716 65.1176 41.6836 65.1752 41.594C65.184 41.5796 65.1936 41.5652 65.2032 41.55C65.26 41.4612 65.3168 41.37 65.3744 41.2772C65.384 41.262 65.3936 41.246 65.4032 41.2308C65.4608 41.1364 65.5184 41.0412 65.5776 40.942C65.5856 40.9284 65.5936 40.9148 65.6024 40.9004C65.6624 40.7988 65.7232 40.6956 65.784 40.59C65.7896 40.5812 65.7936 40.5732 65.7984 40.5652C65.8608 40.4564 65.924 40.3452 65.9872 40.2324C65.9896 40.2276 65.992 40.2236 65.9944 40.2188C66.0568 40.106 66.12 39.9908 66.1832 39.874C66.1912 39.8596 66.1984 39.846 66.2064 39.8316C66.2664 39.7188 66.3272 39.6028 66.388 39.4868C66.3984 39.4676 66.408 39.4492 66.4176 39.43C66.4776 39.3132 66.5376 39.1956 66.5984 39.0748C66.608 39.0548 66.6184 39.034 66.628 39.014C66.6888 38.8932 66.7496 38.77 66.8104 38.6436C66.82 38.6244 66.8288 38.6044 66.8384 38.5852C66.9 38.4556 66.9632 38.3252 67.0256 38.1908C67.032 38.1764 67.0376 38.1636 67.044 38.15C67.1104 38.0076 67.176 37.8644 67.2416 37.718C67.2808 37.6324 67.3184 37.546 67.3544 37.4604C67.3664 37.4316 67.3792 37.4028 67.3904 37.374C67.4152 37.3164 67.4392 37.2596 67.4624 37.202C67.4768 37.1676 67.4896 37.1332 67.504 37.098C67.524 37.0468 67.5456 36.9948 67.5648 36.9436C67.58 36.9068 67.5928 36.8692 67.6072 36.8332C67.6256 36.7828 67.6448 36.7332 67.664 36.6844C67.6776 36.6468 67.6912 36.6084 67.7048 36.5708C67.7224 36.522 67.74 36.474 67.7576 36.4252C67.7712 36.386 67.784 36.3476 67.7976 36.3084C67.8136 36.2604 67.8304 36.2132 67.8464 36.1652C67.86 36.1252 67.872 36.086 67.8856 36.0468C67.9008 35.9988 67.9168 35.9524 67.9304 35.9044C67.944 35.8644 67.9552 35.826 67.9672 35.786C67.9824 35.7396 67.996 35.6916 68.0104 35.6452C68.0216 35.6052 68.0336 35.566 68.0456 35.526C68.0592 35.4796 68.072 35.4324 68.0856 35.386C68.0968 35.346 68.108 35.3068 68.1192 35.2668C68.1312 35.2204 68.1448 35.1724 68.1568 35.126C68.1672 35.0868 68.1776 35.0476 68.188 35.0076C68.2 34.9612 68.2128 34.914 68.224 34.8668C68.2336 34.8276 68.2432 34.7892 68.2528 34.7492C68.264 34.7028 68.276 34.6548 68.2864 34.6084C68.296 34.5692 68.3048 34.5308 68.3136 34.4916C68.3248 34.4436 68.336 34.3956 68.3464 34.3476C68.3544 34.3108 68.3632 34.2724 68.3712 34.2356C68.3816 34.186 68.3912 34.1364 68.4024 34.0884C68.4096 34.0524 68.4176 34.0148 68.4248 33.9788C68.4344 33.9284 68.444 33.878 68.4536 33.8276C68.4608 33.7932 68.468 33.758 68.4736 33.7236C68.484 33.67 68.4936 33.6148 68.5024 33.5612C68.5088 33.53 68.5136 33.5004 68.5192 33.47C68.5304 33.402 68.5424 33.3348 68.5528 33.2676C68.5552 33.2508 68.5592 33.2332 68.5616 33.2164C68.5752 33.1324 68.588 33.0484 68.6008 32.966C68.604 32.9404 68.608 32.9156 68.6112 32.89C68.62 32.8316 68.628 32.7732 68.636 32.7156C68.6392 32.6908 68.6424 32.6668 68.6456 32.6436H71.1528C73.5952 32.6436 75.8064 33.4668 77.408 34.798C79.0088 36.1284 80 37.966 80 39.9972C80 44.0588 76.0384 47.3508 71.1528 47.3508H68.8592C63.972 47.3508 60.0112 50.6436 60.0112 54.7036L60.0104 54.706Z" fill="url(#paint2_linear_11179_37046)"/>
<path d="M67.9646 59.8726C70.6191 59.8726 72.771 57.7207 72.771 55.0662C72.771 52.4117 70.6191 50.2598 67.9646 50.2598C65.3101 50.2598 63.1582 52.4117 63.1582 55.0662C63.1582 57.7207 65.3101 59.8726 67.9646 59.8726Z" fill="url(#paint3_linear_11179_37046)"/>
<path d="M10.9404 20.7051C9.92844 23.2531 9.37164 26.0315 9.37164 28.9403C9.37164 29.3163 9.38124 29.6899 9.39964 30.0619C7.50924 29.4155 6.14844 27.6227 6.14844 25.5123C6.14844 22.8627 8.29244 20.7139 10.9404 20.7059V20.7051Z" fill="url(#paint4_linear_11179_37046)"/>
<path d="M15.7633 25.5118C15.7633 27.0286 15.0609 28.3798 13.9641 29.2606C13.9617 29.1542 13.9609 29.047 13.9609 28.9406C13.9609 26.8286 14.3305 24.8022 15.0081 22.9238C15.4865 23.671 15.7633 24.5598 15.7633 25.5126V25.5118Z" fill="url(#paint5_linear_11179_37046)"/>
<path d="M31.6954 6.61914C19.3674 6.61914 9.37305 16.6135 9.37305 28.9415C9.37305 41.2695 19.3674 51.2639 31.6954 51.2639C34.8578 51.2639 37.8674 50.6063 40.5938 49.4199C43.4914 48.1591 46.0698 46.3007 48.1722 44.0015C51.8034 40.0319 54.0178 34.7455 54.0178 28.9415C54.0178 16.6135 44.0234 6.61914 31.6954 6.61914ZM31.6954 46.6759C21.901 46.6759 13.961 38.7359 13.961 28.9415C13.961 19.1471 21.901 11.2071 31.6954 11.2071C41.4898 11.2071 49.4298 19.1471 49.4298 28.9415C49.4298 38.7359 41.4906 46.6759 31.6954 46.6759Z" fill="url(#paint6_linear_11179_37046)"/>
<path d="M62.7953 63.5778C64.9561 68.653 59.9001 72.797 54.9297 68.0106C50.9777 64.2066 45.9441 54.873 44.0449 51.2034C44.4673 51.1178 44.8777 50.9362 45.2441 50.6562L47.9721 48.5634C48.4817 48.1722 48.8273 47.6474 48.9969 47.0762C52.0209 50.0522 60.8305 58.9586 62.7953 63.5778Z" fill="url(#paint7_linear_11179_37046)"/>
<path d="M48.995 47.0756C48.8254 47.646 48.4798 48.1716 47.9702 48.562L45.2414 50.6548C44.8758 50.9356 44.4654 51.118 44.043 51.2028C42.9758 51.4204 41.831 51.0339 41.1246 50.1131L40.5918 49.4204C43.4894 48.1596 46.0678 46.3012 48.1702 44.002L48.5118 44.4476C49.1078 45.2252 49.2542 46.2044 48.9934 47.0764L48.995 47.0756Z" fill="url(#paint8_linear_11179_37046)"/>
<path d="M47.7178 55.3165C47.637 55.3165 47.5586 55.2757 47.513 55.2021C47.0018 54.3685 46.5482 53.4901 46.1658 52.5909C46.1138 52.4693 46.1706 52.3277 46.2922 52.2765C46.4138 52.2245 46.5554 52.2813 46.6074 52.4029C46.981 53.2805 47.4234 54.1381 47.9226 54.9517C47.9922 55.0645 47.9562 55.2125 47.8434 55.2821C47.8042 55.3061 47.761 55.3173 47.7178 55.3173V55.3165ZM55.1434 65.0461C55.0778 65.0461 55.0114 65.0189 54.9642 64.9661C52.5906 62.3085 50.4458 59.3981 48.3714 56.5829C48.293 56.4765 48.3154 56.3261 48.4226 56.2477C48.529 56.1693 48.6794 56.1917 48.7578 56.2989C50.825 59.1053 52.9634 62.0069 55.3218 64.6477C55.4098 64.7469 55.4018 64.8981 55.3026 64.9869C55.257 65.0277 55.1994 65.0477 55.1426 65.0477L55.1434 65.0461ZM57.3642 67.6269C57.305 67.6269 57.245 67.6053 57.1986 67.5605C56.7154 67.1005 56.2578 66.6037 55.8394 66.0845C55.7562 65.9813 55.7722 65.8301 55.8754 65.7469C55.9786 65.6637 56.1298 65.6797 56.213 65.7829C56.6186 66.2861 57.0618 66.7669 57.5298 67.2125C57.6258 67.3037 57.6298 67.4557 57.5386 67.5517C57.4914 67.6013 57.4282 67.6261 57.365 67.6261L57.3642 67.6269ZM47.5266 51.2709C47.4506 51.2709 47.3762 51.2349 47.3298 51.1677C47.2538 51.0589 47.281 50.9093 47.3898 50.8333C48.2962 50.2021 49.1522 49.4869 49.9338 48.7069C50.0274 48.6133 50.1794 48.6133 50.273 48.7069C50.3666 48.8005 50.3666 48.9525 50.273 49.0461C49.4714 49.8461 48.5938 50.5797 47.6642 51.2269C47.6226 51.2557 47.5746 51.2701 47.5274 51.2701L47.5266 51.2709Z" fill="#CCD2D6"/>
<path d="M39.9994 24.0337V38.2793C39.9994 38.8929 39.5018 39.3897 38.889 39.3897H24.5018C23.8874 39.3897 23.3906 38.8921 23.3906 38.2793V19.6065C23.3906 18.9929 23.8882 18.4961 24.5018 18.4961H34.4618C34.6226 18.4961 34.7786 18.5305 34.9218 18.5969C35.0418 18.6505 35.1514 18.7273 35.2474 18.8217L39.6746 23.2489C39.829 23.4033 39.9338 23.5993 39.977 23.8105C39.9922 23.8841 39.9994 23.9585 39.9994 24.0345V24.0337Z" fill="url(#paint9_linear_11179_37046)"/>
<path d="M39.9771 23.8093H35.6235C35.2363 23.8093 34.9219 23.4957 34.9219 23.1077V18.5957C35.0419 18.6493 35.1515 18.7261 35.2475 18.8205L39.6747 23.2477C39.8291 23.4021 39.9339 23.5981 39.9771 23.8093Z" fill="url(#paint10_linear_11179_37046)"/>
<path d="M35.3625 31.8866C35.5737 32.0978 35.5737 32.441 35.3625 32.653L34.5881 33.429C34.3745 33.6402 34.0313 33.6402 33.8201 33.429L31.6905 31.2978C31.4793 31.0866 31.1361 31.0866 30.9241 31.2978L28.7945 33.4274C28.5833 33.6386 28.2401 33.6386 28.0281 33.4274L27.2537 32.653C27.0425 32.4418 27.0425 32.0986 27.2537 31.8866L29.3833 29.757C29.5945 29.5458 29.5945 29.2026 29.3833 28.9906L27.2521 26.861C27.0409 26.6498 27.0409 26.3066 27.2521 26.093L28.0281 25.3186C28.2393 25.1074 28.5825 25.1074 28.7945 25.3186L30.9241 27.4482C31.1377 27.6594 31.4785 27.6594 31.6921 27.4482L33.8217 25.3186C34.0329 25.1074 34.3761 25.1074 34.5881 25.3186L35.3625 26.093C35.5737 26.3042 35.5737 26.6474 35.3625 26.8594L33.2329 28.989C33.0217 29.2026 33.0217 29.5434 33.2329 29.757L35.3625 31.8866Z" fill="url(#paint11_linear_11179_37046)"/>
<path d="M8.72027 54.8078L13.2963 47.5182C13.6379 46.9734 14.4123 46.9198 14.8235 47.4142C15.8987 48.707 17.9691 50.851 20.5395 51.815C22.8123 52.6678 24.8595 52.823 26.1403 52.8094C26.7971 52.8022 27.2595 53.4526 27.0395 54.0718L24.2771 61.8558C24.1291 62.2718 23.7139 62.5302 23.2747 62.479C20.7883 62.1894 12.7835 60.8918 8.78427 55.9062C8.53147 55.591 8.50347 55.1494 8.71867 54.807L8.72027 54.8078Z" fill="url(#paint12_linear_11179_37046)"/>
<path opacity="0.6" d="M12.4094 56.6791C12.3678 56.6791 12.3262 56.6687 12.2886 56.6463C12.1742 56.5791 12.1358 56.4319 12.203 56.3175L15.5822 50.5503C15.6494 50.4359 15.7958 50.3975 15.9102 50.4647C16.0246 50.5319 16.063 50.6791 15.9958 50.7935L12.6166 56.5607C12.5718 56.6367 12.4918 56.6791 12.4094 56.6791ZM15.7886 56.3855C15.7558 56.3855 15.723 56.3791 15.691 56.3647C15.5702 56.3111 15.515 56.1687 15.5694 56.0479L17.191 52.3975C17.2446 52.2767 17.387 52.2215 17.5078 52.2759C17.6286 52.3295 17.6838 52.4719 17.6294 52.5927L16.0078 56.2431C15.9678 56.3327 15.8806 56.3855 15.7886 56.3855Z" fill="#CCD2D6"/>
<path d="M21.4134 66.431C21.3342 66.0166 21.539 65.5981 21.9166 65.4093C23.0966 64.8205 25.6006 63.3334 26.8294 60.8366C27.535 59.4022 27.9566 58.4381 28.2078 57.8053C28.427 57.2541 29.0918 57.0365 29.5926 57.3541L36.555 61.7541C36.9414 61.9981 37.0982 62.4838 36.927 62.9078C36.3374 64.367 34.6934 67.6262 31.1662 69.6701C27.823 71.6077 24.835 72.1534 23.4158 72.3078C22.9262 72.3606 22.479 72.0278 22.387 71.5438L21.4134 66.431Z" fill="url(#paint13_linear_11179_37046)"/>
<path d="M54.1724 41.5706C53.4996 41.2194 53.314 40.3434 53.786 39.7482C55.1628 38.013 57.5636 34.4626 57.826 30.5258C58.0884 26.5914 57.5276 24.7538 57.1788 24.017C57.0916 23.833 57.2348 23.6234 57.4372 23.6418L68.1108 24.585C68.2244 24.5954 68.3188 24.677 68.3436 24.7882C68.5956 25.9282 69.774 32.0826 67.242 37.7194C64.8036 43.1482 62.4052 45.0154 61.822 45.4098C61.742 45.4642 61.6396 45.4698 61.554 45.425L54.1732 41.569L54.1724 41.5706Z" fill="url(#paint14_linear_11179_37046)"/>
<g opacity="0.5">
<path d="M66.1795 27.3966C66.1715 27.3966 66.1635 27.3966 66.1555 27.395L58.9923 26.6742C58.8603 26.6606 58.7643 26.543 58.7779 26.411C58.7915 26.279 58.9083 26.183 59.0411 26.1966L66.2043 26.9174C66.3363 26.931 66.4323 27.0486 66.4187 27.1806C66.4059 27.3046 66.3019 27.3966 66.1803 27.3966H66.1795ZM63.3075 29.8742C63.2923 29.8742 63.2779 29.8726 63.2627 29.8702L59.6019 29.179C59.4715 29.1542 59.3859 29.0286 59.4107 28.899C59.4355 28.7694 59.5611 28.683 59.6907 28.7078L63.3515 29.399C63.4819 29.4238 63.5675 29.5494 63.5427 29.679C63.5211 29.7942 63.4203 29.8742 63.3075 29.8742ZM62.8003 36.7222C62.7763 36.7222 62.7523 36.719 62.7291 36.711L58.5395 35.4046C58.4131 35.3654 58.3427 35.2302 58.3819 35.1038C58.4211 34.9774 58.5563 34.907 58.6827 34.9462L62.8723 36.2526C62.9987 36.2918 63.0691 36.427 63.0299 36.5534C62.9979 36.6558 62.9035 36.7222 62.8011 36.7222H62.8003Z" fill="#CCD2D6"/>
</g>
<path d="M14.7669 47.3523H13.4277C13.7893 46.9867 14.3949 46.9763 14.7669 47.3523Z" fill="#CCD2D6"/>
<path d="M14.0981 47.1542C14.2541 47.1542 14.4037 47.195 14.5349 47.2718H13.6597C13.7909 47.195 13.9413 47.1542 14.0989 47.1542M14.0989 47.0742C13.8541 47.0742 13.6101 47.1686 13.4277 47.3518H14.7669C14.5821 47.1654 14.3397 47.0742 14.0981 47.0742H14.0989Z" fill="#CCD2D6"/>
<defs>
<linearGradient id="paint0_linear_11179_37046" x1="9.5352" y1="12.5186" x2="9.5352" y2="82.7842" gradientUnits="userSpaceOnUse">
<stop stop-color="#CCD2D6" stop-opacity="0.1"/>
<stop offset="1" stop-color="#CCD2D6" stop-opacity="0.25"/>
</linearGradient>
<linearGradient id="paint1_linear_11179_37046" x1="31.7873" y1="12.5179" x2="31.7873" y2="82.7835" gradientUnits="userSpaceOnUse">
<stop stop-color="#CCD2D6" stop-opacity="0.1"/>
<stop offset="1" stop-color="#CCD2D6" stop-opacity="0.25"/>
</linearGradient>
<linearGradient id="paint2_linear_11179_37046" x1="40" y1="12.5188" x2="40" y2="82.7844" gradientUnits="userSpaceOnUse">
<stop stop-color="#CCD2D6" stop-opacity="0.1"/>
<stop offset="1" stop-color="#CCD2D6" stop-opacity="0.25"/>
</linearGradient>
<linearGradient id="paint3_linear_11179_37046" x1="67.9646" y1="12.5198" x2="67.9646" y2="82.7854" gradientUnits="userSpaceOnUse">
<stop stop-color="#CCD2D6" stop-opacity="0.1"/>
<stop offset="1" stop-color="#CCD2D6" stop-opacity="0.25"/>
</linearGradient>
<linearGradient id="paint4_linear_11179_37046" x1="8.54524" y1="12.5179" x2="8.54524" y2="82.7835" gradientUnits="userSpaceOnUse">
<stop stop-color="#CCD2D6" stop-opacity="0.1"/>
<stop offset="1" stop-color="#CCD2D6" stop-opacity="0.25"/>
</linearGradient>
<linearGradient id="paint5_linear_11179_37046" x1="14.8625" y1="12.5182" x2="14.8625" y2="82.7838" gradientUnits="userSpaceOnUse">
<stop stop-color="#CCD2D6" stop-opacity="0.1"/>
<stop offset="1" stop-color="#CCD2D6" stop-opacity="0.25"/>
</linearGradient>
<linearGradient id="paint6_linear_11179_37046" x1="28.213" y1="4.34874" x2="34.0954" y2="45.8935" gradientUnits="userSpaceOnUse">
<stop stop-color="#CCD2D6" stop-opacity="0.25"/>
<stop offset="1" stop-color="#CCD2D6" stop-opacity="0.5"/>
</linearGradient>
<linearGradient id="paint7_linear_11179_37046" x1="59.9433" y1="66.7522" x2="42.1321" y2="44.693" gradientUnits="userSpaceOnUse">
<stop stop-color="#CCD2D6" stop-opacity="0.7"/>
<stop offset="1" stop-color="#CCD2D6"/>
</linearGradient>
<linearGradient id="paint8_linear_11179_37046" x1="40.5926" y1="47.6316" x2="49.119" y2="47.6316" gradientUnits="userSpaceOnUse">
<stop stop-color="#CCD2D6" stop-opacity="0.7"/>
<stop offset="1" stop-color="#CCD2D6"/>
</linearGradient>
<linearGradient id="paint9_linear_11179_37046" x1="31.6962" y1="28.8393" x2="31.4506" y2="44.6081" gradientUnits="userSpaceOnUse">
<stop stop-color="#CCD2D6" stop-opacity="0.5"/>
<stop offset="1" stop-color="#CCD2D6"/>
</linearGradient>
<linearGradient id="paint10_linear_11179_37046" x1="34.9219" y1="21.2029" x2="39.9771" y2="21.2029" gradientUnits="userSpaceOnUse">
<stop stop-color="#CCD2D6" stop-opacity="0.7"/>
<stop offset="1" stop-color="#CCD2D6"/>
</linearGradient>
<linearGradient id="paint11_linear_11179_37046" x1="31.3081" y1="26.2882" x2="31.3081" y2="33.373" gradientUnits="userSpaceOnUse">
<stop stop-color="#CCD2D6" stop-opacity="0.7"/>
<stop offset="1" stop-color="#CCD2D6"/>
</linearGradient>
<linearGradient id="paint12_linear_11179_37046" x1="15.2387" y1="50.8374" x2="27.9843" y2="68.9758" gradientUnits="userSpaceOnUse">
<stop stop-color="#CCD2D6" stop-opacity="0.25"/>
<stop offset="1" stop-color="#CCD2D6" stop-opacity="0.5"/>
</linearGradient>
<linearGradient id="paint13_linear_11179_37046" x1="24.1318" y1="61.2349" x2="29.3606" y2="66.6269" gradientUnits="userSpaceOnUse">
<stop stop-color="#CCD2D6" stop-opacity="0.25"/>
<stop offset="1" stop-color="#CCD2D6" stop-opacity="0.5"/>
</linearGradient>
<linearGradient id="paint14_linear_11179_37046" x1="63.7324" y1="27.1674" x2="55.8892" y2="45.673" gradientUnits="userSpaceOnUse">
<stop stop-color="#CCD2D6" stop-opacity="0.25"/>
<stop offset="1" stop-color="#CCD2D6" stop-opacity="0.5"/>
</linearGradient>
</defs>
</svg>
