<svg width="48" height="48" viewBox="0 0 48 48" fill="none" xmlns="http://www.w3.org/2000/svg">
<path d="M16.2143 20.7551C15.5656 20.8744 14.9096 20.9496 14.2508 20.9801V22.4996H16.4745C16.4374 21.9118 16.3504 21.3282 16.2143 20.7551ZM14.2508 17.4746V19.4816C14.7457 19.4555 15.2387 19.4016 15.7275 19.3204C15.4326 18.5703 14.9179 17.9269 14.2508 17.4746ZM18.0758 27.1226C17.8838 27.0321 17.6783 26.9479 17.4593 26.8699C17.3136 27.32 17.1312 27.7575 16.914 28.1779C17.3453 27.8779 17.7358 27.5232 18.0758 27.1226ZM19.449 22.4996C19.3394 21.6293 19.039 20.7939 18.5693 20.0531C18.2756 20.182 17.9752 20.2949 17.6693 20.3914C17.8352 21.0835 17.9389 21.789 17.979 22.4996H19.449ZM17.5605 18.8449C17.3574 18.6552 17.1414 18.4797 16.914 18.3199C17.0205 18.5246 17.121 18.7376 17.214 18.9619C17.3318 18.9251 17.4488 18.8861 17.5605 18.8449ZM8.92578 27.1234C9.26529 27.5238 9.65558 27.8783 10.0868 28.1779C9.86948 27.7573 9.68711 27.3196 9.54153 26.8691C9.33214 26.9435 9.12663 27.0283 8.92578 27.1234ZM15.9998 26.4806C15.4221 26.3719 14.8378 26.3017 14.2508 26.2706V29.0246C15.1094 28.4034 15.7273 27.5048 15.9998 26.4806ZM16.4745 23.9996H14.2508V24.7714C14.9587 24.8037 15.6633 24.8877 16.359 25.0226C16.4125 24.6956 16.451 24.3546 16.4745 23.9996Z" fill="#7D7D7D"/>
<path d="M22.5 10.5H21.75V12H22.5V10.5Z" fill="#7D7D7D"/>
<path d="M25.5 22.305C25.9896 22.4338 26.4937 22.4994 27 22.5C28.5913 22.5 30.1174 21.8679 31.2426 20.7426C32.3679 19.6174 33 18.0913 33 16.5C33 14.9087 32.3679 13.3826 31.2426 12.2574C30.1174 11.1321 28.5913 10.5 27 10.5C25.9443 10.5024 24.9085 10.7873 24 11.325V12C24.3975 12.0012 24.7783 12.1596 25.0593 12.4407C25.3404 12.7217 25.4988 13.1025 25.5 13.5V22.305ZM25.5 35.25V37.5H31.65C31.8155 36.7088 32.1067 35.9491 32.5125 35.25H25.5ZM21 39V41.25H31.845C31.6157 40.522 31.4993 39.7632 31.5 39H21Z" fill="#7D7D7D"/>
<path d="M23.9775 9.645C24.9991 9.19152 26.1092 8.97212 27.2266 9.00286C28.3439 9.03361 29.4402 9.3137 30.4354 9.82267C31.4306 10.3316 32.2994 11.0566 32.9783 11.9446C33.6572 12.8325 34.1291 13.861 34.3594 14.9548C34.5897 16.0485 34.5726 17.18 34.3093 18.2663C34.0461 19.3526 33.5434 20.3664 32.838 21.2334C32.1325 22.1004 31.2422 22.7988 30.2321 23.2775C29.2221 23.7562 28.1178 24.003 27 24C26.496 23.997 25.9936 23.9443 25.5 23.8425V25.5H37.5525C37.7167 24.3789 38.2382 23.3406 39.0394 22.5394C39.8406 21.7382 40.8789 21.2167 42 21.0525V11.9475C40.8789 11.7833 39.8406 11.2618 39.0394 10.4606C38.2382 9.65938 37.7167 8.62112 37.5525 7.5H21.75V9H23.25C23.4286 9.00206 23.6004 9.06841 23.734 9.18687C23.8676 9.30533 23.9541 9.46798 23.9775 9.645ZM9 6H10.5V12H12.75V9.75H14.25V12H16.5V6H18V12H20.25V3H6.75V12H9V6ZM12.75 6H14.25V8.25H12.75V6ZM5.25 10.5H3.75C3.55109 10.5 3.36032 10.579 3.21967 10.7197C3.07902 10.8603 3 11.0511 3 11.25V12H5.25V10.5ZM12.75 29.025V26.271C12.163 26.3018 11.5787 26.3717 11.001 26.4802C11.2733 27.5047 11.8911 28.4037 12.75 29.025ZM17.8162 25.404C18.1865 25.5281 18.5474 25.6785 18.8962 25.854C19.1803 25.2703 19.3668 24.644 19.4482 24H17.9783C17.951 24.4707 17.8969 24.9395 17.8162 25.404ZM34.5225 33H25.5V33.75H33.6525C33.9249 33.4803 34.2156 33.2297 34.5225 33ZM32.5125 42.75H26.25V45H34.5225C33.7088 44.392 33.0253 43.6269 32.5125 42.75Z" fill="#7D7D7D"/>
<path d="M24.75 42.75H12.75V45H24.75V42.75Z" fill="#7D7D7D"/>
<path d="M12.7502 17.475C12.0831 17.9273 11.5683 18.5707 11.2734 19.3207C11.7623 19.4013 12.2554 19.4544 12.7502 19.4797V17.475ZM39.0002 33C37.8135 33 36.6535 33.3519 35.6668 34.0112C34.6801 34.6705 33.911 35.6075 33.4569 36.7039C33.0028 37.8003 32.884 39.0067 33.1155 40.1705C33.347 41.3344 33.9184 42.4035 34.7575 43.2426C35.5967 44.0818 36.6658 44.6532 37.8296 44.8847C38.9935 45.1162 40.1999 44.9974 41.2963 44.5433C42.3926 44.0892 43.3297 43.3201 43.989 42.3334C44.6483 41.3467 45.0002 40.1867 45.0002 39C44.998 37.4094 44.3652 35.8845 43.2404 34.7598C42.1157 33.635 40.5908 33.0022 39.0002 33ZM42.7502 37.5H41.2502V36.75C41.2502 36.5511 41.1712 36.3603 41.0305 36.2197C40.8899 36.079 40.6991 36 40.5002 36H37.5002C37.3013 36 37.1105 36.079 36.9699 36.2197C36.8292 36.3603 36.7502 36.5511 36.7502 36.75V37.5C36.7502 37.6989 36.8292 37.8897 36.9699 38.0303C37.1105 38.171 37.3013 38.25 37.5002 38.25H40.5002C41.0964 38.2518 41.6676 38.4894 42.0892 38.911C42.5108 39.3325 42.7484 39.9038 42.7502 40.5V41.25C42.7484 41.8462 42.5108 42.4175 42.0892 42.839C41.6676 43.2606 41.0964 43.4982 40.5002 43.5H39.7502V44.25H38.2502V43.5H37.5002C36.904 43.4982 36.3327 43.2606 35.9112 42.839C35.4896 42.4175 35.252 41.8462 35.2502 41.25H36.7502C36.7502 41.4489 36.8292 41.6397 36.9699 41.7803C37.1105 41.921 37.3013 42 37.5002 42H40.5002C40.6991 42 40.8899 41.921 41.0305 41.7803C41.1712 41.6397 41.2502 41.4489 41.2502 41.25V40.5C41.2502 40.3011 41.1712 40.1103 41.0305 39.9697C40.8899 39.829 40.6991 39.75 40.5002 39.75H37.5002C36.904 39.7482 36.3327 39.5106 35.9112 39.089C35.4896 38.6675 35.252 38.0962 35.2502 37.5V36.75C35.252 36.1538 35.4896 35.5825 35.9112 35.161C36.3327 34.7394 36.904 34.5018 37.5002 34.5H38.2502V33.75H39.7502V34.5H40.5002C41.0964 34.5018 41.6676 34.7394 42.0892 35.161C42.5108 35.5825 42.7484 36.1538 42.7502 36.75V37.5ZM21.7502 4.5V6H38.2502C38.4491 6 38.6399 6.07902 38.7805 6.21967C38.9212 6.36032 39.0002 6.55109 39.0002 6.75C39.0002 7.74456 39.3953 8.69839 40.0985 9.40165C40.8018 10.1049 41.7556 10.5 42.7502 10.5C42.9491 10.5 43.1399 10.579 43.2805 10.7197C43.4212 10.8603 43.5002 11.0511 43.5002 11.25V21.75C43.5002 21.9489 43.4212 22.1397 43.2805 22.2803C43.1399 22.421 42.9491 22.5 42.7502 22.5C41.7556 22.5 40.8018 22.8951 40.0985 23.5984C39.3953 24.3016 39.0002 25.2554 39.0002 26.25C39.0002 26.4489 38.9212 26.6397 38.7805 26.7803C38.6399 26.921 38.4491 27 38.2502 27H25.5002V28.5H45.0002V4.5H21.7502Z" fill="#7D7D7D"/>
<path d="M43.5 30H25.5V31.5H43.5V30Z" fill="#7D7D7D"/>
<path d="M19.5 38.25C19.5 38.0511 19.579 37.8603 19.7197 37.7197C19.8603 37.579 20.0511 37.5 20.25 37.5H24V13.5H3V41.25H19.5V38.25ZM13.5 15.75C14.9834 15.75 16.4334 16.1899 17.6668 17.014C18.9001 17.8381 19.8614 19.0094 20.4291 20.3799C20.9968 21.7503 21.1453 23.2583 20.8559 24.7132C20.5665 26.168 19.8522 27.5044 18.8033 28.5533C17.7544 29.6022 16.418 30.3165 14.9632 30.6059C13.5083 30.8953 12.0003 30.7468 10.6299 30.1791C9.25943 29.6114 8.08809 28.6501 7.26398 27.4168C6.43987 26.1834 6 24.7334 6 23.25C6.00218 21.2615 6.79306 19.3552 8.19911 17.9491C9.60516 16.5431 11.5115 15.7522 13.5 15.75ZM7.5 33H19.5V34.5H7.5V33Z" fill="#7D7D7D"/>
<path d="M9.32828 20.3923C9.02241 20.2958 8.72197 20.1829 8.42828 20.054C7.95937 20.795 7.65975 21.6304 7.55078 22.5005H9.02078C9.06017 21.79 9.16308 21.0844 9.32828 20.3923ZM10.0858 18.3223C9.85844 18.4822 9.64242 18.6576 9.43928 18.8473C9.55103 18.8885 9.66428 18.9275 9.78653 18.9658C9.87878 18.74 9.97928 18.5255 10.0858 18.3223ZM12.749 24.7723V24.0005H10.5253C10.5488 24.355 10.5873 24.696 10.6408 25.0235C11.3364 24.8882 12.0411 24.8042 12.749 24.7723ZM12.749 20.981C12.0902 20.9505 11.4342 20.8753 10.7855 20.756C10.6495 21.3291 10.5624 21.9127 10.5253 22.5005H12.749V20.981ZM9.02078 24.0005H7.55078C7.6325 24.6455 7.81922 25.2728 8.10353 25.8575C8.45211 25.682 8.81278 25.5316 9.18278 25.4075C9.10199 24.942 9.0479 24.4722 9.02078 24.0005Z" fill="#7D7D7D"/>
</svg>
