<svg width="52" height="48" viewBox="0 0 52 48" fill="none" xmlns="http://www.w3.org/2000/svg">
<path d="M41.3324 24.7754H15.8008V37.2652H41.3324V24.7754Z" fill="#F5F5F5"/>
<path d="M41.3324 24.7754H15.8008V37.2664H41.3324V24.7754Z" fill="#F5F5F5"/>
<path d="M19.2824 35.4488V34.9203C19.2821 34.6189 19.1623 34.33 18.9491 34.1169C18.736 33.9038 18.4471 33.7839 18.1457 33.7836H17.6172V28.257H18.1457C18.4471 28.2567 18.736 28.1369 18.9491 27.9237C19.1623 27.7106 19.2821 27.4217 19.2824 27.1203V26.5918H37.8496V27.1203C37.8499 27.4217 37.9698 27.7106 38.1829 27.9237C38.396 28.1369 38.6849 28.2567 38.9863 28.257H39.5148V33.7836H38.984C38.6826 33.7839 38.3937 33.9038 38.1805 34.1169C37.9674 34.33 37.8476 34.6189 37.8473 34.9203V35.4488H19.2824Z" fill="#A9AFC4"/>
<path d="M41.6793 37.6168H15.4492V24.4238H41.6793V37.6168ZM16.1477 36.9137H40.9762V25.127H16.1523L16.1477 36.9137Z" fill="#5E6175"/>
<path d="M27.8703 9.58859V10.8155C27.8703 11.5705 27.5704 12.2945 27.0366 12.8283C26.5028 13.3621 25.7788 13.662 25.0238 13.662H19.4398C18.33 13.663 17.2364 13.929 16.25 14.4378C15.2186 14.9707 14.0703 15.2368 12.9097 15.2121C11.7491 15.1873 10.6131 14.8724 9.60547 14.296L7.73047 12.973H0.078125V3.41984L8.3082 5.31242L15.6488 2.21867C17.7723 1.2964 19.952 1.67375 21.7508 3.15617L26.4383 6.75148C26.8817 7.07994 27.2421 7.50757 27.4908 8.00019C27.7394 8.49282 27.8694 9.03677 27.8703 9.58859Z" fill="#F5F5F5"/>
<path style="mix-blend-mode:multiply" d="M27.8708 9.58398V10.8109C27.871 11.185 27.7974 11.5554 27.6544 11.901C27.5113 12.2467 27.3016 12.5607 27.0372 12.8253C26.7727 13.0898 26.4587 13.2997 26.1132 13.4429C25.7676 13.5861 25.3972 13.6598 25.0232 13.6598C19.0091 13.6598 19.2482 13.648 18.8122 13.6879C18.5076 11.8552 18.7229 9.97372 19.4336 8.25715C20.1443 6.54057 21.3219 5.0576 22.8329 3.97656L26.4458 6.74687C26.8876 7.07639 27.2464 7.50441 27.4938 7.99692C27.7412 8.48943 27.8703 9.03284 27.8708 9.58398Z" fill="url(#paint0_linear_8776_191678)"/>
<path d="M9.43008 14.602C9.38672 14.575 9.72656 14.8129 7.61602 13.3258H0.0785154V12.6227H7.83867L9.79336 13.9996C10.7481 14.5457 11.8245 14.8436 12.9241 14.8659C14.0238 14.8882 15.1114 14.6343 16.0875 14.1274C17.1239 13.5912 18.2733 13.31 19.4402 13.3071H24.3293C24.6016 13.3136 24.8724 13.2656 25.1259 13.1659C25.3793 13.0662 25.6103 12.9169 25.8051 12.7266C26 12.5363 26.1549 12.309 26.2606 12.058C26.3663 11.807 26.4208 11.5374 26.4208 11.2651C26.4208 10.9927 26.3663 10.7231 26.2606 10.4721C26.1549 10.2211 26 9.99383 25.8051 9.80357C25.6103 9.6133 25.3793 9.46393 25.1259 9.36425C24.8724 9.26456 24.6016 9.21656 24.3293 9.22309H16.9195V8.51996H24.3293C24.8139 8.52101 25.2896 8.65018 25.7081 8.89437C26.1267 9.13856 26.4732 9.48909 26.7126 9.91041C26.952 10.3317 27.0758 10.8089 27.0713 11.2934C27.0668 11.778 26.9343 12.2528 26.6871 12.6696C26.949 12.436 27.1586 12.1496 27.302 11.8293C27.4454 11.509 27.5194 11.1619 27.5191 10.811V9.58403C27.5177 9.08663 27.4004 8.59641 27.1767 8.15218C26.953 7.70795 26.6289 7.32192 26.2301 7.02465L21.5379 3.43051C19.7801 2.00668 17.7445 1.69379 15.7887 2.5434L8.34141 5.68168L0 3.76332L0.157031 3.07895L8.28164 4.94574L15.5156 1.89887C17.7199 0.941447 20.0168 1.28949 21.9773 2.8809L26.6648 6.47035C27.1476 6.83351 27.5395 7.30372 27.8098 7.84401C28.08 8.3843 28.2212 8.97992 28.2223 9.58403V10.8122C28.221 11.6603 27.8836 12.4733 27.2839 13.073C26.6842 13.6727 25.8712 14.0101 25.023 14.0114H19.4402C18.3863 14.0122 17.3478 14.2645 16.4109 14.7473C15.3285 15.3104 14.1218 15.5923 12.9019 15.5669C11.682 15.5415 10.4881 15.2097 9.43008 14.602Z" fill="#5E6175"/>
<path d="M28.6223 20.0648C33.0401 20.0648 36.6215 16.4835 36.6215 12.0656C36.6215 7.64778 33.0401 4.06641 28.6223 4.06641C24.2044 4.06641 20.623 7.64778 20.623 12.0656C20.623 16.4835 24.2044 20.0648 28.6223 20.0648Z" fill="#E36C2F"/>
<path d="M22.7178 17.9709C21.5498 16.8031 20.7543 15.3151 20.432 13.6952C20.1097 12.0753 20.275 10.3962 20.907 8.87018C21.5391 7.34421 22.6094 6.03993 23.9827 5.12228C25.356 4.20464 26.9706 3.71484 28.6223 3.71484C30.2739 3.71484 31.8885 4.20464 33.2618 5.12228C34.6351 6.03993 35.7055 7.34421 36.3375 8.87018C36.9695 10.3962 37.1348 12.0753 36.8125 13.6952C36.4902 15.3151 35.6948 16.8031 34.5268 17.9709C32.9595 19.5345 30.8361 20.4125 28.6223 20.4125C26.4085 20.4125 24.285 19.5345 22.7178 17.9709ZM23.2147 6.65412C22.1451 7.72366 21.4167 9.08634 21.1216 10.5698C20.8265 12.0534 20.9779 13.5911 21.5567 14.9885C22.1356 16.3859 23.1158 17.5804 24.3734 18.4207C25.6311 19.261 27.1097 19.7096 28.6223 19.7096C30.1348 19.7096 31.6135 19.261 32.8711 18.4207C34.1288 17.5804 35.109 16.3859 35.6878 14.9885C36.2666 13.5911 36.4181 12.0534 36.123 10.5698C35.8278 9.08634 35.0995 7.72366 34.0299 6.65412C32.5945 5.22226 30.6497 4.41814 28.6223 4.41814C26.5948 4.41814 24.6501 5.22226 23.2147 6.65412Z" fill="#5E6175"/>
<path d="M29.4777 40.059C28.8717 40.059 28.2904 39.8183 27.8619 39.3897C27.4333 38.9612 27.1926 38.3799 27.1926 37.7739C27.1926 37.1678 27.4333 36.5866 27.8619 36.158C28.2904 35.7295 28.8717 35.4887 29.4777 35.4887H32.4004C33.4605 35.4885 34.5053 35.2346 35.4472 34.7481C36.4317 34.2396 37.5278 33.9856 38.6356 34.0093C39.7434 34.0331 40.8277 34.3338 41.7894 34.884L43.7043 36.2703H51.6402V45.6325L43.0258 43.4598L33.6379 46.4117C32.2005 46.8289 30.6698 46.7962 29.2515 46.318L17.1953 42.1778C16.5722 41.961 16.0589 41.5088 15.7654 40.9181C15.4718 40.3273 15.4215 39.645 15.6251 39.0176C15.8286 38.3901 16.27 37.8674 16.8544 37.5615C17.4389 37.2556 18.1199 37.1909 18.7515 37.3813L26.8597 39.9594C27.0803 40.0276 27.3098 40.0624 27.5406 40.0625L29.4777 40.059Z" fill="#F5F5F5"/>
<path d="M29.1417 46.6543L17.0832 42.5141C16.3732 42.267 15.7884 41.7515 15.4541 41.0782C15.1198 40.4049 15.0626 39.6274 15.2949 38.9125C15.5272 38.1975 16.0304 37.6021 16.6966 37.2538C17.3628 36.9056 18.1389 36.8323 18.8585 37.0496L26.9679 39.6278C27.2015 39.6972 27.4452 39.7265 27.6886 39.7145C27.2989 39.3548 27.0268 38.8858 26.9079 38.369C26.789 37.8521 26.8289 37.3114 27.0224 36.8175C27.2159 36.3237 27.5539 35.8998 27.9923 35.6012C28.4306 35.3027 28.9489 35.1434 29.4792 35.1442H32.4019C33.4059 35.1428 34.395 34.9018 35.2871 34.441C36.3233 33.9033 37.4781 33.6346 38.6453 33.6598C39.8125 33.685 40.9547 34.0032 41.9667 34.5852C42.016 34.6168 42.4613 34.9367 43.8207 35.9246H51.6417V36.6278H43.5921L41.5999 35.1864C40.6908 34.6675 39.6661 34.385 38.6196 34.3645C37.573 34.344 36.538 34.5863 35.6093 35.0692C34.6173 35.5802 33.5178 35.8473 32.4019 35.8485H29.4792C28.9664 35.8485 28.4746 36.0522 28.112 36.4148C27.7494 36.7774 27.5457 37.2692 27.5457 37.7821C27.5457 38.2949 27.7494 38.7867 28.112 39.1493C28.4746 39.5119 28.9664 39.7157 29.4792 39.7157H34.8089V40.4188H27.5433C27.2772 40.4197 27.0124 40.3802 26.7582 40.3016L18.6488 37.7235C18.1107 37.5756 17.5363 37.6407 17.045 37.9052C16.5536 38.1698 16.183 38.6134 16.0102 39.144C15.8373 39.6746 15.8755 40.2514 16.1168 40.7546C16.358 41.2578 16.7839 41.6487 17.3058 41.8461L29.3644 45.9887C30.7135 46.4451 32.1703 46.4758 33.5375 46.0766L43.0167 43.1L51.7273 45.2961L51.5562 45.9782L43.0378 43.8301L33.7449 46.7528C32.2367 47.193 30.6297 47.1587 29.1417 46.6543Z" fill="#5E6175"/>
<path d="M28.5664 34.6367C30.563 34.6367 32.1816 33.0181 32.1816 31.0215C32.1816 29.0248 30.563 27.4062 28.5664 27.4062C26.5698 27.4062 24.9512 29.0248 24.9512 31.0215C24.9512 33.0181 26.5698 34.6367 28.5664 34.6367Z" fill="#F5F5F5"/>
<path d="M30.3814 33.1914H27.2454C27.1543 33.1914 27.0648 33.1665 26.9868 33.1193C26.9088 33.0721 26.8452 33.0044 26.803 32.9236C26.7607 32.8428 26.7414 32.752 26.7471 32.661C26.7528 32.57 26.7833 32.4823 26.8353 32.4074C27.1174 32.0033 27.268 31.5221 27.2665 31.0293V30.1656C27.2665 29.7513 27.4311 29.354 27.7241 29.061C28.017 28.7681 28.4143 28.6035 28.8286 28.6035C29.2429 28.6035 29.6403 28.7681 29.9332 29.061C30.2262 29.354 30.3907 29.7513 30.3907 30.1656V30.2523H29.6876V30.1656C29.6919 30.0496 29.6727 29.9339 29.6313 29.8255C29.5898 29.717 29.527 29.6181 29.4464 29.5345C29.3658 29.4509 29.2692 29.3844 29.1624 29.339C29.0555 29.2936 28.9406 29.2701 28.8245 29.2701C28.7084 29.2701 28.5935 29.2936 28.4867 29.339C28.3798 29.3844 28.2833 29.4509 28.2027 29.5345C28.1221 29.6181 28.0592 29.717 28.0178 29.8255C27.9763 29.9339 27.9572 30.0496 27.9615 30.1656V31.0293C27.9623 31.538 27.8379 32.039 27.5993 32.4883H30.379L30.3814 33.1914Z" fill="#E36C2F"/>
<path d="M29.2887 30.9512H26.7891V31.6496H29.2887V30.9512Z" fill="#E36C2F"/>
<path d="M28.6223 16.0984C27.9245 16.0975 27.2556 15.8199 26.7622 15.3265C26.2688 14.8331 25.9912 14.1642 25.9902 13.4664H27.6402C27.6402 13.6609 27.6979 13.8511 27.806 14.0128C27.9141 14.1745 28.0677 14.3005 28.2475 14.3749C28.4272 14.4493 28.6249 14.4687 28.8157 14.4306C29.0064 14.3926 29.1816 14.2988 29.3191 14.1612C29.4565 14.0236 29.5501 13.8483 29.5879 13.6575C29.6257 13.4667 29.6061 13.269 29.5315 13.0893C29.4569 12.9097 29.3307 12.7562 29.1688 12.6483C29.007 12.5404 28.8168 12.483 28.6223 12.4832C28.1012 12.4841 27.5916 12.3305 27.1579 12.0416C26.7243 11.7528 26.386 11.3418 26.1861 10.8607C25.9861 10.3795 25.9333 9.84986 26.0345 9.33873C26.1357 8.8276 26.3862 8.35797 26.7544 7.98929C27.1226 7.62061 27.5919 7.36945 28.1029 7.2676C28.6139 7.16574 29.1436 7.21778 29.625 7.41713C30.1064 7.61647 30.5178 7.95415 30.8072 8.38743C31.0967 8.82072 31.251 9.33012 31.2508 9.85117H29.6102C29.6104 9.65666 29.5529 9.46645 29.445 9.30461C29.3371 9.14277 29.1837 9.01657 29.004 8.94197C28.8244 8.86738 28.6267 8.84774 28.4359 8.88554C28.2451 8.92335 28.0698 9.0169 27.9321 9.15435C27.7945 9.29181 27.7008 9.467 27.6627 9.65775C27.6247 9.84851 27.6441 10.0463 27.7185 10.226C27.7929 10.4057 27.9189 10.5593 28.0806 10.6674C28.2423 10.7755 28.4324 10.8332 28.627 10.8332C28.9773 10.8258 29.3257 10.8884 29.6516 11.0174C29.9774 11.1464 30.2743 11.3391 30.5247 11.5843C30.7751 11.8295 30.9741 12.1222 31.1099 12.4453C31.2457 12.7684 31.3157 13.1153 31.3157 13.4658C31.3157 13.8163 31.2457 14.1632 31.1099 14.4863C30.9741 14.8094 30.7751 15.1021 30.5247 15.3473C30.2743 15.5925 29.9774 15.7852 29.6516 15.9142C29.3257 16.0432 28.9773 16.1058 28.627 16.0984H28.6223Z" fill="#F5F5F5"/>
<path d="M29.4488 6.39648H27.7988V8.0418H29.4488V6.39648Z" fill="#F5F5F5"/>
<path d="M29.4488 15.2734H27.7988V16.9187H29.4488V15.2734Z" fill="#F5F5F5"/>
<path d="M16.9191 8.88086H24.3289C24.9637 8.88086 25.5725 9.13294 26.0214 9.58167C26.4704 10.0304 26.7227 10.6391 26.723 11.2738C26.723 11.5882 26.6611 11.8996 26.5408 12.19C26.4205 12.4805 26.2441 12.7444 26.0218 12.9667C25.7995 13.1891 25.5356 13.3654 25.2451 13.4857C24.9546 13.606 24.6433 13.668 24.3289 13.668H19.4398C18.3303 13.6672 17.2367 13.9316 16.25 14.4391" fill="#F5F5F5"/>
<path d="M16.4113 14.7516L16.0879 14.127C17.1243 13.5907 18.2737 13.3095 19.4406 13.3066H24.3297C24.602 13.3132 24.8728 13.2652 25.1262 13.1655C25.3797 13.0658 25.6107 12.9164 25.8055 12.7262C26.0004 12.5359 26.1553 12.3086 26.261 12.0576C26.3667 11.8066 26.4212 11.537 26.4212 11.2646C26.4212 10.9923 26.3667 10.7227 26.261 10.4717C26.1553 10.2207 26.0004 9.9934 25.8055 9.80313C25.6107 9.61287 25.3797 9.4635 25.1262 9.36382C24.8728 9.26413 24.602 9.21613 24.3297 9.22266H16.9199V8.51953H24.3297C24.695 8.51198 25.0581 8.57741 25.3977 8.71197C25.7374 8.84654 26.0468 9.04754 26.3078 9.30319C26.5687 9.55885 26.7761 9.86402 26.9176 10.2008C27.0592 10.5376 27.1321 10.8993 27.1321 11.2646C27.1321 11.63 27.0592 11.9917 26.9176 12.3285C26.7761 12.6653 26.5687 12.9704 26.3078 13.2261C26.0468 13.4818 25.7374 13.6828 25.3977 13.8173C25.0581 13.9519 24.695 14.0173 24.3297 14.0098H19.4406C18.3862 14.0124 17.3477 14.2667 16.4113 14.7516ZM34.791 2.76094C34.6056 2.76105 34.4221 2.72382 34.2514 2.65145C34.0807 2.57909 33.9263 2.47309 33.7975 2.33977C33.6687 2.20645 33.568 2.04854 33.5015 1.87547C33.435 1.7024 33.4041 1.51771 33.4105 1.33242C33.42 1.06164 33.5089 0.799614 33.6662 0.579005C33.8235 0.358396 34.0422 0.188956 34.2952 0.0918007C34.5481 -0.00535506 34.824 -0.0259309 35.0886 0.0326375C35.3531 0.0912059 35.5946 0.226329 35.7829 0.421167C35.9712 0.616006 36.0979 0.861945 36.1474 1.12834C36.1969 1.39473 36.1669 1.66979 36.0612 1.91925C35.9554 2.16871 35.7786 2.38154 35.5527 2.53121C35.3269 2.68088 35.062 2.76077 34.791 2.76094ZM34.1137 1.35469C34.1087 1.48852 34.1435 1.62083 34.2136 1.73489C34.2838 1.84896 34.3862 1.93966 34.5079 1.99553C34.6297 2.05141 34.7652 2.06995 34.8974 2.04881C35.0297 2.02768 35.1527 1.96781 35.2509 1.87678C35.3492 1.78576 35.4182 1.66765 35.4493 1.53739C35.4805 1.40714 35.4723 1.27058 35.4258 1.14497C35.3794 1.01936 35.2967 0.91035 35.1883 0.831706C35.0799 0.753061 34.9506 0.708316 34.8168 0.703125C34.6372 0.69647 34.4623 0.761337 34.3305 0.883491C34.1987 1.00565 34.1207 1.17511 34.1137 1.35469ZM40.1031 7.96055C39.8905 7.96087 39.6826 7.89763 39.5062 7.77893C39.3298 7.66024 39.1929 7.49151 39.1131 7.29443C39.0332 7.09735 39.0142 6.8809 39.0583 6.67289C39.1024 6.46489 39.2077 6.27482 39.3606 6.1271C39.5136 5.97938 39.7072 5.88075 39.9166 5.84389C40.126 5.80702 40.3417 5.8336 40.5359 5.92021C40.73 6.00682 40.8939 6.1495 41.0064 6.32994C41.1189 6.51037 41.1749 6.72032 41.1672 6.93281C41.1569 7.20838 41.0404 7.46928 40.842 7.66086C40.6437 7.85244 40.3789 7.95983 40.1031 7.96055ZM39.7398 6.88125C39.7378 6.95272 39.757 7.0232 39.7949 7.0838C39.8329 7.14439 39.8879 7.19239 39.9531 7.22175C40.0183 7.2511 40.0908 7.2605 40.1613 7.24875C40.2318 7.237 40.2973 7.20464 40.3495 7.15573C40.4016 7.10683 40.4381 7.04358 40.4544 6.97395C40.4707 6.90433 40.466 6.83144 40.4409 6.76448C40.4158 6.69753 40.3714 6.6395 40.3134 6.59772C40.2554 6.55593 40.1863 6.53226 40.1148 6.52969C40.0671 6.52812 40.0196 6.53598 39.9749 6.5528C39.9302 6.56963 39.8893 6.5951 39.8545 6.62775C39.8196 6.6604 39.7916 6.69959 39.7719 6.74309C39.7523 6.78659 39.7414 6.83354 39.7398 6.88125Z" fill="#5E6175"/>
<path d="M13.2745 21.6024L12.7773 22.0996L14.3277 23.65L14.8249 23.1528L13.2745 21.6024Z" fill="#5E6175"/>
<path d="M13.427 24.8574H11.2344V25.5605H13.427V24.8574Z" fill="#5E6175"/>
<path d="M16.6016 20H15.8984V22.1926H16.6016V20Z" fill="#5E6175"/>
<path d="M44.3762 31.4762H43.673V30.773H44.3762V31.4762ZM44.3762 29.6012H43.673V28.898H44.3762V29.6012ZM44.3762 27.7262H43.673V27.023H44.3762V27.7262ZM44.3762 25.8512H43.673V25.148H44.3762V25.8512ZM43.5559 24.0992C43.4927 23.9034 43.4057 23.716 43.2969 23.5414L43.8934 23.1687C44.0327 23.3926 44.1441 23.6326 44.225 23.8836L43.5559 24.0992ZM42.5914 22.8008C42.4229 22.6827 42.2402 22.5863 42.0477 22.5137L42.2973 21.8562C42.5436 21.9493 42.7774 22.0725 42.9934 22.223L42.5914 22.8008ZM41.0234 22.3496H40.3203V21.6465H41.0234V22.3496ZM39.1484 22.3496H38.4453V21.6465H39.1484V22.3496Z" fill="#A9AFC4"/>
<path d="M49.2824 21.9988H46.9715C46.9716 18.4092 46.0608 14.8783 44.3242 11.7367L46.3457 10.6152C48.2718 14.1003 49.2822 18.017 49.2824 21.9988Z" fill="#E36C2F"/>
<path d="M45.3359 21.6543H50.9211L48.1461 24.7504L45.3359 21.6543Z" fill="#E36C2F"/>
<path d="M9.73359 41.9832C7.80697 38.4984 6.79651 34.5815 6.79688 30.5996H9.10781C9.10747 34.1896 10.0183 37.721 11.7551 40.8629L9.73359 41.9832Z" fill="#E36C2F"/>
<path d="M10.7445 30.9449H5.1582L7.93438 27.8477L10.7445 30.9449Z" fill="#E36C2F"/>
<defs>
<linearGradient id="paint0_linear_8776_191678" x1="18.6798" y1="8.8375" x2="27.8708" y2="8.8375" gradientUnits="userSpaceOnUse">
<stop stop-color="#CACFDD"/>
<stop offset="1" stop-color="#EEF0F1"/>
</linearGradient>
</defs>
</svg>
