<svg width="14" height="14" viewBox="0 0 14 14" fill="none" xmlns="http://www.w3.org/2000/svg">
<g clip-path="url(#clip0_12916_17422)">
<path d="M2.91703 4.08203L2.20606 4.55601C1.69639 4.89579 1.44156 5.06568 1.30346 5.32477C1.16536 5.58386 1.16638 5.88836 1.16842 6.49736C1.17089 7.23059 1.1777 7.97768 1.19657 8.73361C1.24134 10.5271 1.26372 11.4239 1.92312 12.0833C2.58252 12.7427 3.49139 12.7654 5.30913 12.8108C6.43997 12.8391 7.56078 12.8391 8.69162 12.8108C10.5094 12.7654 11.4182 12.7427 12.0776 12.0833C12.737 11.4239 12.7594 10.5271 12.8042 8.7336C12.823 7.97768 12.8298 7.23059 12.8323 6.49736C12.8344 5.88836 12.8354 5.58386 12.6973 5.32477C12.5592 5.06568 12.3043 4.89579 11.7947 4.55601L11.0837 4.08203" stroke="#98A2B3" stroke-width="1.5" stroke-linejoin="round"/>
<path d="M1.16602 5.83203L5.19861 8.25159C6.07596 8.778 6.51463 9.0412 6.99935 9.0412C7.48407 9.0412 7.92274 8.778 8.80009 8.25159L12.8327 5.83203" stroke="#98A2B3" stroke-width="1.5" stroke-linejoin="round"/>
<path d="M2.91602 6.99935V3.49935C2.91602 2.39941 2.91602 1.84943 3.25772 1.50772C3.59943 1.16602 4.14941 1.16602 5.24935 1.16602H8.74935C9.84929 1.16602 10.3993 1.16602 10.741 1.50772C11.0827 1.84943 11.0827 2.39941 11.0827 3.49935V6.99935" stroke="#98A2B3" stroke-width="1.5"/>
<path d="M5.83203 5.83203H8.16536M5.83203 3.4987H8.16536" stroke="#98A2B3" stroke-width="1.5" stroke-linecap="round" stroke-linejoin="round"/>
</g>
<defs>
<clipPath id="clip0_12916_17422">
<rect width="14" height="14" fill="white"/>
</clipPath>
</defs>
</svg>
