<svg width="14" height="14" viewBox="0 0 14 14" fill="none" xmlns="http://www.w3.org/2000/svg">
<path d="M10.2077 7.8756V8.75059C10.2077 10.6755 10.2077 11.6379 9.60969 12.2359C9.0117 12.8339 8.04925 12.8339 6.12435 12.8339C4.19945 12.8339 3.237 12.8339 2.63901 12.2359C2.04102 11.6379 2.04102 10.6755 2.04102 8.75059V5.25059C2.04102 3.32569 2.04102 2.36324 2.63901 1.76524C3.13856 1.26569 3.89247 1.18346 5.24935 1.16992" stroke="#98A2B3" stroke-width="1.5" stroke-linecap="round"/>
<path d="M9.33349 1.16602C8.50239 1.16602 7.96351 1.696 7.32619 1.88918C7.06706 1.96772 6.93749 2.007 6.88505 2.06236C6.83262 2.11772 6.81726 2.19862 6.78655 2.36043C6.45793 4.09184 7.17621 5.69256 8.8892 6.3156C9.07325 6.38255 9.16527 6.41602 9.33439 6.41602C9.50351 6.41601 9.59553 6.38254 9.77957 6.3156C11.4925 5.69255 12.21 4.09183 11.8813 2.36042C11.8506 2.1986 11.8352 2.11768 11.7828 2.06232C11.7304 2.00695 11.6008 1.9677 11.3417 1.8892C10.7041 1.69604 10.1646 1.16602 9.33349 1.16602Z" stroke="#98A2B3" stroke-width="1.5" stroke-linecap="round" stroke-linejoin="round"/>
<path d="M5.54102 11.084H6.70768" stroke="#98A2B3" stroke-width="1.5" stroke-linecap="round" stroke-linejoin="round"/>
</svg>
