<svg width="48" height="48" viewBox="0 0 48 48" fill="none" xmlns="http://www.w3.org/2000/svg">
<path d="M22.5938 21.3164H16.5C16.2411 21.3164 16.0312 21.5262 16.0312 21.7852V26.0242C16.0312 26.2832 16.2411 26.493 16.5 26.493H22.5938C22.8527 26.493 23.0625 26.2832 23.0625 26.0242V21.7852C23.0625 21.5262 22.8527 21.3164 22.5938 21.3164ZM22.5938 28.205H16.5C16.2411 28.205 16.0312 28.4148 16.0312 28.6737C16.0312 28.9327 16.2411 29.1425 16.5 29.1425H22.5938C22.8527 29.1425 23.0625 28.9327 23.0625 28.6737C23.0625 28.4148 22.8527 28.205 22.5938 28.205ZM22.5938 30.8544H16.5C16.2411 30.8544 16.0312 31.0642 16.0312 31.3232C16.0312 31.5821 16.2411 31.7919 16.5 31.7919H22.5938C22.8527 31.7919 23.0625 31.5821 23.0625 31.3232C23.0625 31.0642 22.8527 30.8544 22.5938 30.8544ZM22.5938 33.5039H16.5C16.2411 33.5039 16.0312 33.7137 16.0312 33.9727C16.0312 34.2316 16.2411 34.4414 16.5 34.4414H22.5938C22.8527 34.4414 23.0625 34.2316 23.0625 33.9727C23.0625 33.7137 22.8527 33.5039 22.5938 33.5039ZM13.6875 18.0352C13.4286 18.0352 13.2188 18.245 13.2188 18.5039V19.0248C13.2188 19.2837 13.4286 19.4935 13.6875 19.4935C13.9464 19.4935 14.1562 19.2837 14.1562 19.0248V18.5039C14.1562 18.245 13.9464 18.0352 13.6875 18.0352ZM13.6875 20.6392C13.4286 20.6392 13.2188 20.8491 13.2188 21.108V21.6289C13.2188 21.8878 13.4286 22.0976 13.6875 22.0976C13.9464 22.0976 14.1562 21.8878 14.1562 21.6289V21.108C14.1562 20.8492 13.9464 20.6392 13.6875 20.6392ZM13.6875 23.2435C13.4286 23.2435 13.2188 23.4533 13.2188 23.7123V24.2332C13.2188 24.4921 13.4286 24.7019 13.6875 24.7019C13.9464 24.7019 14.1562 24.4921 14.1562 24.2332V23.7123C14.1562 23.4533 13.9464 23.2435 13.6875 23.2435ZM13.6875 25.8476C13.4286 25.8476 13.2188 26.0574 13.2188 26.3164V26.8373C13.2188 27.0962 13.4286 27.306 13.6875 27.306C13.9464 27.306 14.1562 27.0962 14.1562 26.8373V26.3164C14.1562 26.0574 13.9464 25.8476 13.6875 25.8476ZM13.6875 28.4518C13.4286 28.4518 13.2188 28.6616 13.2188 28.9206V29.4414C13.2188 29.7004 13.4286 29.9102 13.6875 29.9102C13.9464 29.9102 14.1562 29.7004 14.1562 29.4414V28.9206C14.1562 28.6616 13.9464 28.4518 13.6875 28.4518ZM13.6875 31.056C13.4286 31.056 13.2188 31.2658 13.2188 31.5248V32.0456C13.2188 32.3046 13.4286 32.5144 13.6875 32.5144C13.9464 32.5144 14.1562 32.3046 14.1562 32.0456V31.5248C14.1562 31.2658 13.9464 31.056 13.6875 31.056ZM13.6875 33.6602C13.4286 33.6602 13.2188 33.87 13.2188 34.1289V34.6497C13.2188 34.9087 13.4286 35.1185 13.6875 35.1185C13.9464 35.1185 14.1562 34.9087 14.1562 34.6497V34.1289C14.1562 33.87 13.9464 33.6602 13.6875 33.6602ZM13.6875 36.2643C13.4286 36.2643 13.2188 36.4741 13.2188 36.733V37.2539C13.2188 37.5128 13.4286 37.7227 13.6875 37.7227C13.9464 37.7227 14.1562 37.5128 14.1562 37.2539V36.733C14.1562 36.4742 13.9464 36.2643 13.6875 36.2643Z" fill="#7D7D7D"/>
<path d="M47.5939 21.372C47.7811 21.3057 47.9062 21.1286 47.9062 20.9301V18.1858C47.9062 17.9269 47.6964 17.7171 47.4375 17.7171C46.0625 17.7171 44.9437 16.5983 44.9437 15.2233C44.9437 14.9644 44.7339 14.7546 44.475 14.7546H44.1801L43.5277 13.4343C43.4398 13.2563 43.2502 13.1531 43.0521 13.1765C42.1744 13.2798 41.6562 12.2247 42.2701 11.5938C42.4086 11.4515 42.4423 11.2373 42.3543 11.0593L41.1387 8.59903C41.0241 8.367 40.7431 8.27184 40.5109 8.38641C39.2781 8.99541 37.7797 8.48813 37.1705 7.25531C37.0555 7.02253 36.7736 6.92841 36.5426 7.04269L20.9345 14.7546H15.0119C14.8133 14.7546 14.6363 14.8797 14.5701 15.0668C14.2759 15.8972 13.0994 15.8987 12.8048 15.0668C12.7385 14.8797 12.5615 14.7546 12.3629 14.7546H3.525C3.26606 14.7546 3.05625 14.9644 3.05625 15.2233C3.05625 16.5983 1.93753 17.7171 0.5625 17.7171C0.303562 17.7171 0.09375 17.9269 0.09375 18.1858V20.9301C0.09375 21.1286 0.218906 21.3057 0.406125 21.372C1.23647 21.6658 1.23787 22.8426 0.406031 23.1372C0.218906 23.2035 0.09375 23.3805 0.09375 23.5791V26.5551C0.09375 26.7536 0.218906 26.9307 0.406125 26.997C1.23647 27.2908 1.23787 28.4676 0.406031 28.7622C0.218906 28.8285 0.09375 29.0055 0.09375 29.2041V32.1801C0.09375 32.3786 0.218906 32.5557 0.406125 32.622C1.23647 32.9158 1.23787 34.0926 0.406031 34.3872C0.218906 34.4535 0.09375 34.6305 0.09375 34.8291V37.5732C0.09375 37.8322 0.303562 38.042 0.5625 38.042C1.93753 38.042 3.05625 39.1607 3.05625 40.5358C3.05625 40.7948 3.26606 41.0046 3.525 41.0046H12.363C12.5616 41.0046 12.7386 40.8794 12.8048 40.6923C13.099 39.8619 14.2755 39.8604 14.5702 40.6923C14.6364 40.8794 14.8134 41.0046 15.012 41.0046H44.475C44.7339 41.0046 44.9437 40.7948 44.9437 40.5358C44.9437 39.1607 46.0625 38.042 47.4375 38.042C47.6964 38.042 47.9062 37.8322 47.9062 37.5732V34.8291C47.9062 34.6305 47.7811 34.4535 47.594 34.3872C46.7637 34.0931 46.7619 32.9164 47.5939 32.622C47.7811 32.5557 47.9062 32.3786 47.9062 32.1801V29.2041C47.9062 29.0055 47.7811 28.8285 47.594 28.7622C46.7637 28.4681 46.7619 27.2914 47.5939 26.997C47.7811 26.9307 47.9062 26.7536 47.9062 26.5551V23.5791C47.9062 23.3805 47.7811 23.2035 47.594 23.1372C47.22 23.0048 46.9688 22.6501 46.9688 22.2546C46.9688 21.8589 47.22 21.5043 47.5939 21.372ZM46.9688 20.6322C45.7207 21.3536 45.7205 23.155 46.9688 23.8768V26.2572C45.7207 26.9786 45.7205 28.78 46.9688 29.5018V31.8822C45.7207 32.6036 45.7205 34.405 46.9688 35.1268V37.1363C45.4511 37.3447 44.2464 38.5493 44.0381 40.0671H15.3098C14.5882 38.8191 12.787 38.8188 12.0653 40.0671H3.96187C3.75356 38.5493 2.54887 37.3447 1.03125 37.1363V35.1268C2.27916 34.4052 2.27962 32.6038 1.03125 31.8822V29.5018C2.27916 28.7802 2.27962 26.9788 1.03125 26.2572V23.8768C2.27916 23.1552 2.27962 21.3538 1.03125 20.6322V18.6226C2.54887 18.4143 3.75356 17.2097 3.96187 15.692H12.0653C12.7868 16.94 14.5881 16.9403 15.3098 15.692C17.0596 15.692 42.7122 15.692 44.0382 15.692C44.2465 17.2096 45.4511 18.4143 46.9688 18.6226V20.6322H46.9688Z" fill="#7D7D7D"/>
<path d="M10.4062 18.974H4.78125C4.52231 18.974 4.3125 19.1838 4.3125 19.4428V36.3178C4.3125 36.5767 4.52231 36.7865 4.78125 36.7865H10.4062C10.6652 36.7865 10.875 36.5767 10.875 36.3178V19.4428C10.875 19.1838 10.6652 18.974 10.4062 18.974ZM44.145 20.6559C44.145 19.2722 43.0192 18.1465 41.6356 18.1465H27.2481C25.8644 18.1465 24.7387 19.2722 24.7387 20.6559V35.0434C24.7387 36.4271 25.8644 37.5528 27.2481 37.5528C27.4928 37.5528 41.0403 37.5528 41.6356 37.5528C43.0192 37.5528 44.145 36.4271 44.145 35.0434C44.145 33.1759 44.145 22.959 44.145 20.6559ZM40.6694 32.1369C40.339 29.9412 39.7569 28.3776 38.9034 26.4054C39.1612 26.3476 39.1721 26.3568 39.261 26.3099C39.3559 26.258 39.3446 26.2458 39.4631 26.148C41.3686 27.94 42.7064 31.2816 43.2075 33.9114V34.2885C42.7252 33.2432 41.7979 32.4446 40.6694 32.1369ZM33.6813 26.8641L33.3326 27.7681C32.5112 28.2827 31.8356 28.7875 31.3307 29.1974C32.164 26.2279 34.2157 24.9658 37.4135 25.8291C36.6307 26.0699 35.9102 26.3614 35.1849 26.7264C34.9279 26.8557 34.6277 26.8298 34.4011 26.6586C34.2837 26.57 34.1316 26.5417 33.99 26.582C33.8485 26.6224 33.7342 26.7268 33.6813 26.8641ZM39.2257 19.0841H40.4451C40.3005 19.3785 40.1621 19.6759 40.0325 19.9752L39.1908 20.4571C38.9205 20.6118 38.8739 20.9825 39.0965 21.1995L39.431 21.5257C39.0992 22.4558 38.8776 23.3211 38.737 24.2564C38.7068 24.2051 38.6765 24.1544 38.6458 24.1043C37.7968 22.0544 37.9898 20.3709 39.2257 19.0841ZM43.2075 23.4115C42.2347 23.7148 41.2402 23.9221 40.1032 24.5665C40.9068 22.999 41.9465 22.0663 43.2075 21.7805V23.4115ZM37.8809 24.6956C37.0391 24.2654 36.2067 23.9414 35.257 23.6687L35.1868 23.2065C35.14 22.8982 34.8106 22.721 34.5283 22.8506L34.3124 22.9494C33.8889 23.1431 33.4277 23.202 32.9782 23.1204C32.3048 22.9977 31.7063 22.9232 31.2158 22.8782C33.8573 21.3519 36.1574 21.8677 37.8204 24.5521C37.8408 24.6 37.8595 24.6472 37.8809 24.6956ZM40.2315 25.5845C41.2606 24.9255 42.1605 24.7012 43.2075 24.3912V30.4995C42.5247 28.6902 41.534 26.861 40.2315 25.5845ZM43.2075 20.6559V20.8224C41.9215 21.0486 40.8329 21.7813 39.9506 23.0102C40.0755 22.5372 40.228 22.0634 40.4145 21.5665C40.4798 21.3923 40.436 21.196 40.3028 21.0661L40.1959 20.9619L40.6344 20.7107C40.8837 20.568 40.7801 20.4599 41.4961 19.084H41.6357C42.5023 19.0841 43.2075 19.7892 43.2075 20.6559ZM25.6763 35.0434V20.6559C25.6763 19.7892 26.3813 19.084 27.2482 19.084H38.0192C37.4577 19.8977 37.0795 20.9724 37.2233 22.3584C36.5599 21.7696 35.8271 21.3843 35.0284 21.2068C32.1832 20.5741 29.6197 22.8338 29.5119 22.9304C29.192 23.2168 29.3951 23.7548 29.8342 23.7481C32.6599 23.791 33.0391 24.3633 34.3498 23.9393L34.3756 24.1094C34.4035 24.2933 34.5375 24.4433 34.7171 24.4917C34.8852 24.537 35.0486 24.584 35.2093 24.6325C34.3461 24.6819 33.5715 24.9167 32.8908 25.3385C30.4127 26.8738 30.1573 30.2812 30.1476 30.4255C30.1186 30.8581 30.6457 31.0945 30.9496 30.7854C30.9608 30.774 32.095 29.6304 33.9592 28.4826C34.0466 28.4288 34.1138 28.3478 34.1508 28.2521L34.3721 27.678C34.7743 27.7972 35.2133 27.7618 35.6063 27.5639C36.3719 27.1785 37.1342 26.8806 37.9827 26.6387C38.797 28.5047 39.3624 29.9743 39.6995 31.9997C38.315 31.9787 37.0774 32.6819 36.3621 33.7555C34.1513 32.2046 31.0015 33.8184 31.0901 36.6153H27.2482C26.3813 36.6153 25.6763 35.9101 25.6763 35.0434Z" fill="#7D7D7D"/>
</svg>
