<svg width="80" height="80" viewBox="0 0 80 80" fill="none" xmlns="http://www.w3.org/2000/svg">
<path d="M0 40.0001C0 37.9697 0.9912 36.1305 2.592 34.8009C4.1928 33.4689 6.4048 32.6465 8.8472 32.6465H20.5112C20.4416 32.7937 20.376 32.9441 20.3128 33.0953L10.4696 38.9481C8.0496 40.3857 6.956 43.3129 7.8376 45.9849L8.2848 47.3393C3.6608 47.0993 0.0008 43.9057 0.0008 40.0009L0 40.0001Z" fill="url(#paint0_linear_13471_17026)"/>
<path d="M19.4727 52.0503L26.7551 51.0471C26.6711 51.0031 26.5871 50.9575 26.5031 50.9111C26.5863 50.9567 26.6703 51.0023 26.7551 51.0463C28.6583 52.0447 30.7495 52.4879 32.8095 52.2463H32.8127C32.9503 52.2383 36.9191 52.0391 38.8767 51.3759C39.2503 51.2927 39.6223 51.1871 39.9903 51.0575C43.9639 49.6647 46.5695 45.9503 47.1847 41.5383L50.2279 41.1191C50.4511 42.7959 51.0135 49.8575 46.4239 58.9911C44.6535 62.5151 42.4207 64.9087 40.0007 66.3623C39.7031 65.8687 39.0847 65.6343 38.5151 65.8471C37.9167 66.0703 37.0727 66.3567 35.9303 66.6879C33.9911 67.2503 31.4847 66.8015 30.1103 66.4671C29.5247 66.3247 28.9223 66.6279 28.6871 67.1831C27.5935 66.7423 26.5495 66.1615 25.5831 65.4615C21.1519 62.2471 19.8535 55.5847 19.4735 52.0495L19.4727 52.0503Z" fill="url(#paint1_linear_13471_17026)"/>
<path d="M58.0288 54.7073C58.0288 58.7681 61.9904 62.0601 66.8768 62.0601H71.1528C76.0384 62.0601 79.9992 65.3521 79.9992 69.4145C79.9992 71.4449 79.0088 73.2825 77.408 74.6129C75.8072 75.9449 73.5944 76.7673 71.1528 76.7673H8.8472C3.9608 76.7673 0 73.4753 0 69.4145C0 67.3841 0.9912 65.5449 2.592 64.2153C4.1928 62.8841 6.4048 62.0609 8.8472 62.0609H9.4408C11.884 62.0609 14.096 61.2377 15.6968 59.9073C16.024 59.6361 16.3248 59.3433 16.5976 59.0321C18.0856 63.3137 21.1376 68.5041 27.3456 70.4313L27.2832 70.5825C26.992 71.2897 27.4072 72.0865 28.1536 72.2537C29.4848 72.5545 31.6672 72.8817 34.2544 72.6361C37.0128 72.3753 39.1216 71.6681 40.2832 71.1921C40.8648 70.9537 41.1744 70.3185 41.0016 69.7137L40.9616 69.5729C53.2352 64.0569 54.2272 45.8241 54.2672 40.8905C55.72 41.5457 57.28 41.8209 58.8192 41.6409C58.8192 41.6409 58.82 41.6409 58.8224 41.6401C58.9376 41.6337 62.2584 41.4665 63.9016 40.9121C63.9024 40.9113 63.904 40.9113 63.9048 40.9113C64.2184 40.8401 64.5296 40.7521 64.8376 40.6441C68.1728 39.4753 70.3592 36.3521 70.8696 32.6465H71.1528C76.0384 32.6465 79.9992 35.9385 79.9992 40.0009C79.9992 42.0313 79.0088 43.8705 77.408 45.2001C75.8072 46.5321 73.5944 47.3545 71.1528 47.3545H66.8768C64.4336 47.3545 62.2216 48.1769 60.6208 49.5081C59.02 50.8393 58.0288 52.6761 58.0288 54.7073Z" fill="url(#paint2_linear_13471_17026)"/>
<path d="M71.1536 3.23242H8.8472C6.4048 3.23242 4.1928 4.05482 2.592 5.38682C0.9912 6.71722 0 8.55562 0 10.586C0 14.6476 3.9616 17.9404 8.8472 17.9404H20.7152C25.6016 17.9404 29.5624 21.2324 29.5624 25.2932C29.5624 25.4188 29.5592 25.5436 29.5512 25.6684C29.8112 25.5668 29.9648 25.514 29.9952 25.5036C29.992 25.5052 29.9872 25.5076 29.984 25.51C29.9872 25.5084 29.9912 25.5068 29.9952 25.5044C29.9968 25.5036 29.9984 25.502 30.0008 25.502C30.2944 25.366 30.596 25.2428 30.9064 25.1332C35.1432 23.6484 39.812 25.198 43.0936 28.7132L48.3464 25.59C49.0296 23.9588 50.1104 22.574 51.52 21.6252C51.6008 21.566 51.6848 21.5124 51.7696 21.4636C51.7792 21.4564 51.788 21.4524 51.7976 21.4468C51.7984 21.4468 51.7984 21.446 51.7992 21.446C51.9928 21.326 52.1928 21.214 52.3992 21.1124C54.784 19.81 56.3664 19.258 56.4632 19.2252C56.4576 19.2276 56.4528 19.2316 56.4464 19.234C56.4528 19.2316 56.4576 19.2284 56.4632 19.226C56.4648 19.2252 56.4664 19.2244 56.4672 19.2244C56.7136 19.11 56.9672 19.0068 57.2272 18.9156C59.3904 18.1572 61.6888 18.3436 63.7776 19.2724C65.2152 18.4324 66.9672 17.9396 68.8592 17.9396H71.1536C73.5952 17.9396 75.808 17.1164 77.4088 15.7852C79.0096 14.4548 80 12.6164 80 10.586C80 6.52522 76.0384 3.23322 71.1536 3.23322V3.23242ZM48.576 18.4188C48.576 19.3964 47.7832 20.1908 46.804 20.1908H43.9344V21.8604C43.9344 22.6284 43.0264 23.0372 42.452 22.5268L39.8192 20.1908H28.792C27.8128 20.1908 27.02 19.3972 27.02 18.4188V8.10842C27.02 7.13082 27.8128 6.33642 28.792 6.33642H46.8032C47.7824 6.33642 48.5752 7.13002 48.5752 8.10842V18.4188H48.576Z" fill="url(#paint3_linear_13471_17026)"/>
<path d="M26.3159 24.9353C26.3159 25.8945 26.0351 26.7873 25.5503 27.5377C25.4183 27.6081 25.2847 27.6801 25.1487 27.7545C24.9031 27.8761 24.6647 28.0097 24.4327 28.1529C24.4319 28.1529 24.4319 28.1537 24.4311 28.1537C24.4199 28.1601 24.4095 28.1657 24.3991 28.1729C24.2967 28.2321 24.1967 28.2961 24.1007 28.3657C23.5575 28.7321 23.0543 29.1521 22.5959 29.6185H22.5951C22.2463 29.6993 21.8823 29.7417 21.5095 29.7417C18.8551 29.7417 16.7031 27.5897 16.7031 24.9353C16.7031 22.2809 18.8551 20.1289 21.5095 20.1289C24.1639 20.1289 26.3159 22.2809 26.3159 24.9353Z" fill="url(#paint4_linear_13471_17026)"/>
<path d="M53.7497 40.6346L50.2305 41.1194L47.1873 41.5378C47.5097 39.2226 47.2849 36.7154 46.4217 34.2514C45.6665 32.0986 44.5121 30.2234 43.0977 28.7122L48.3497 25.5898C47.3201 28.053 47.1993 31.081 48.2321 34.0298C49.1425 36.6258 50.7897 38.7122 52.7689 40.0474C53.0873 40.2634 53.4153 40.4602 53.7497 40.6354V40.6346Z" fill="url(#paint5_linear_13471_17026)"/>
<path d="M63.9088 40.9094C62.2672 41.4654 58.9416 41.6334 58.8264 41.6382C58.824 41.639 58.8232 41.639 58.8232 41.639C57.284 41.819 55.724 41.5438 54.272 40.8886C54.0968 40.8086 53.9224 40.7238 53.7504 40.6334C53.416 40.4582 53.088 40.2614 52.7696 40.0454C50.7904 38.7102 49.144 36.6238 48.2328 34.0278C47.2 31.079 47.3208 28.051 48.3504 25.5878C49.0336 23.9558 50.1144 22.5718 51.524 21.623C51.6048 21.5646 51.6888 21.5102 51.7736 21.4614C51.7832 21.455 51.7912 21.451 51.8008 21.4454C51.8016 21.4454 51.8016 21.4446 51.8024 21.4446C51.996 21.3246 52.196 21.2126 52.4016 21.111C54.7864 19.8086 56.3688 19.2574 56.4656 19.2246C54.6976 20.047 53.3056 21.4502 52.38 23.1926C50.9216 25.935 50.6224 29.519 51.8424 32.999C52.9832 36.255 55.2184 38.7526 57.8368 40.0694C59.7496 41.0342 61.8664 41.3678 63.9088 40.9086V40.9094Z" fill="url(#paint6_linear_13471_17026)"/>
<path d="M70.2293 26.557C68.1269 20.557 62.3069 17.1346 57.2293 18.9138C56.9693 19.005 56.7157 19.1082 56.4693 19.2226C56.4677 19.2226 56.4661 19.2234 56.4653 19.2242C51.9149 21.3418 49.8477 27.3082 51.8413 32.9986C53.8157 38.6346 59.0701 41.9954 63.9085 40.909C64.2221 40.8386 64.5333 40.7498 64.8413 40.6418C69.9197 38.8626 72.3317 32.5562 70.2293 26.557ZM65.4141 36.5514C65.0333 36.7922 64.6229 36.993 64.1845 37.1458C63.6125 37.3466 63.0253 37.4562 62.4389 37.4794C59.2749 37.6114 56.0861 35.2842 54.8069 31.6338C53.5277 27.9834 54.5669 24.1746 57.1213 22.3018C57.5941 21.9546 58.1205 21.6738 58.6941 21.473C59.0629 21.3442 59.4373 21.2522 59.8141 21.1978C63.1749 20.7066 66.7077 23.0946 68.0709 26.9858C69.4069 30.7962 68.2173 34.777 65.4141 36.5506V36.5514Z" fill="url(#paint7_linear_13471_17026)"/>
<path d="M64.751 28.1485C63.4718 24.4989 60.2846 22.1709 57.1198 22.3021C54.5654 24.1749 53.5262 27.9829 54.8054 31.6341C56.0846 35.2845 59.2726 37.6117 62.4374 37.4797C64.9926 35.6077 66.0302 31.7997 64.751 28.1493V28.1485ZM57.431 32.4517C57.0494 32.5853 56.6278 32.3725 56.4886 31.9757C56.3486 31.5789 56.5462 31.1493 56.9278 31.0149C57.3094 30.8813 57.7318 31.0949 57.871 31.4909C58.0102 31.8877 57.8126 32.3181 57.431 32.4517ZM58.2694 29.8597C57.2574 30.2149 56.139 29.6501 55.7702 28.5981C55.4022 27.5469 55.9238 26.4077 56.9358 26.0533C57.9478 25.6989 59.0662 26.2645 59.435 27.3149C59.803 28.3661 59.2814 29.5061 58.2694 29.8597Z" fill="url(#paint8_linear_13471_17026)"/>
<path d="M68.0707 26.9861C69.5875 31.3141 67.8467 35.8629 64.1843 37.1461C63.6115 37.3469 63.0251 37.4556 62.4387 37.4796C64.9939 35.6076 66.0315 31.7997 64.7523 28.1493C63.4731 24.4989 60.2859 22.1717 57.1211 22.3029C57.5947 21.9557 58.1211 21.6749 58.6931 21.4741C62.3555 20.1909 66.5539 22.6596 68.0707 26.9868V26.9861Z" fill="url(#paint9_linear_13471_17026)"/>
<path d="M58.2695 29.8594C57.2575 30.2146 56.1391 29.6498 55.7703 28.5978C55.4023 27.5466 55.9239 26.4074 56.9359 26.053C57.9479 25.6986 59.0663 26.2642 59.4351 27.3146C59.8031 28.3658 59.2815 29.5058 58.2695 29.8594Z" fill="url(#paint10_linear_13471_17026)"/>
<path d="M57.4327 32.4512C57.0511 32.5848 56.6295 32.372 56.4903 31.9752C56.3503 31.5784 56.5479 31.1488 56.9295 31.0144C57.3111 30.8808 57.7335 31.0944 57.8727 31.4904C58.0119 31.8872 57.8143 32.3176 57.4327 32.4512Z" fill="url(#paint11_linear_13471_17026)"/>
<path d="M26.7559 51.045L19.4735 52.0481L15.2079 52.6353C12.3407 53.0289 9.59908 51.3201 8.69188 48.5721L7.83748 45.9825C6.95668 43.3105 8.05029 40.3833 10.4695 38.9457L20.3135 33.0938C19.0847 36.033 18.9399 39.6458 20.1727 43.165C21.4335 46.7618 23.8799 49.5369 26.7551 51.0457L26.7559 51.045Z" fill="url(#paint12_linear_13471_17026)"/>
<path d="M38.8765 51.374C36.9189 52.0372 32.9509 52.2364 32.8125 52.2436H32.8093C30.7493 52.4852 28.6581 52.042 26.7557 51.0444C23.8805 49.5364 21.4341 46.7604 20.1725 43.1636C18.9397 39.6452 19.0837 36.0316 20.3133 33.0932C21.1277 31.146 22.4173 29.4948 24.0989 28.3628C24.1957 28.2924 24.2957 28.2284 24.3973 28.17C24.4085 28.1628 24.4189 28.1572 24.4301 28.1508C24.4309 28.1508 24.4309 28.15 24.4317 28.15C24.6629 28.0068 24.9013 27.8732 25.1469 27.7524C27.9925 26.1988 29.8805 25.5412 29.9965 25.502C27.8877 26.4828 26.2261 28.1572 25.1213 30.2356C23.3821 33.5084 23.0237 37.7844 24.4797 41.9364C25.8405 45.822 28.5085 48.8012 31.6333 50.3732C33.9149 51.5236 36.4405 51.922 38.8773 51.3748L38.8765 51.374Z" fill="url(#paint13_linear_13471_17026)"/>
<path d="M40.6752 46.174C40.2216 46.462 39.7312 46.7004 39.208 46.8836C38.5248 47.1236 37.8248 47.254 37.1256 47.2812C33.3504 47.4388 29.5456 44.662 28.02 40.3068C26.4944 35.9508 27.7328 31.4076 30.7816 29.1732C31.3464 28.7588 31.9744 28.4244 32.6576 28.1844C33.0976 28.03 33.5448 27.9212 33.9936 27.8556C38.0032 27.2692 42.2184 30.118 43.8448 34.762C45.4384 39.3084 44.0192 44.058 40.6752 46.174ZM46.4208 34.2492C45.6656 32.0964 44.5112 30.2212 43.0968 28.71C39.8152 25.1948 35.1456 23.6452 30.9088 25.13C30.5984 25.2396 30.296 25.362 30.0024 25.498C30.0008 25.498 29.9992 25.4996 29.9968 25.5004C24.568 28.0276 22.1008 35.1452 24.4808 41.9348C26.836 48.6596 33.1056 52.6692 38.8776 51.3732C39.2512 51.29 39.6224 51.1836 39.9912 51.0548C43.9648 49.662 46.5704 45.9476 47.1856 41.5356C47.508 39.2204 47.2832 36.7132 46.42 34.2492H46.4208Z" fill="url(#paint14_linear_13471_17026)"/>
<path d="M39.8855 36.1483C38.3599 31.7931 34.5567 29.0163 30.7815 29.1723C27.7335 31.4067 26.4943 35.9499 28.0207 40.3051C29.5471 44.6611 33.3503 47.4379 37.1255 47.2811C40.1735 45.0475 41.4119 40.5043 39.8855 36.1483ZM31.1519 41.2827C30.6967 41.4427 30.1927 41.1883 30.0263 40.7147C29.8607 40.2419 30.0959 39.7283 30.5511 39.5683C31.0063 39.4091 31.5111 39.6635 31.6767 40.1363C31.8423 40.6099 31.6071 41.1227 31.1519 41.2827ZM32.1519 38.1899C30.9447 38.6123 29.6103 37.9395 29.1711 36.6843C28.7311 35.4307 29.3535 34.0707 30.5607 33.6483C31.7679 33.2251 33.1031 33.8987 33.5423 35.1531C33.9823 36.4075 33.3591 37.7675 32.1519 38.1899Z" fill="url(#paint15_linear_13471_17026)"/>
<path d="M43.8461 34.7629C45.6557 39.9269 43.5788 45.3541 39.2093 46.8853C38.5261 47.1245 37.826 47.2549 37.126 47.2837C40.174 45.0501 41.4124 40.5069 39.886 36.1509C38.3604 31.7957 34.5573 29.0181 30.7812 29.1749C31.346 28.7605 31.9741 28.4253 32.6573 28.1861C37.0269 26.6549 42.0365 29.6005 43.8461 34.7637V34.7629Z" fill="url(#paint16_linear_13471_17026)"/>
<path d="M32.1494 38.1915C30.9422 38.6139 29.6078 37.9411 29.1686 36.6859C28.7286 35.4323 29.351 34.0723 30.5582 33.6499C31.7654 33.2267 33.1006 33.9003 33.5398 35.1547C33.9798 36.4091 33.3566 37.7691 32.1494 38.1915Z" fill="url(#paint17_linear_13471_17026)"/>
<path d="M31.1513 41.2833C30.6961 41.4433 30.1921 41.1889 30.0257 40.7153C29.8601 40.2425 30.0953 39.7289 30.5505 39.5689C31.0057 39.4097 31.5105 39.6641 31.6761 40.1369C31.8417 40.6105 31.6065 41.1233 31.1513 41.2833Z" fill="url(#paint18_linear_13471_17026)"/>
<path d="M25.5822 65.4608C26.5486 66.1616 27.5926 66.7424 28.6862 67.1824C28.6846 67.1856 28.683 67.1904 28.6806 67.1936L27.3454 70.4296C16.059 66.9256 15.207 52.636 15.207 52.636L19.4726 52.0488C19.8534 55.584 21.151 62.2464 25.583 65.4608H25.5822Z" fill="url(#paint19_linear_13471_17026)"/>
<path d="M54.268 40.89C54.228 45.8228 53.2352 64.0564 40.9616 69.5724L40.1296 66.6612C40.0984 66.554 40.0552 66.4532 40 66.3628C42.4192 64.9092 44.652 62.5156 46.4224 58.9916C51.012 49.8572 50.4504 42.7956 50.2272 41.1196L53.7464 40.6348C53.9192 40.7252 54.0928 40.81 54.268 40.89Z" fill="url(#paint20_linear_13471_17026)"/>
<path d="M40.2862 71.1909C39.1238 71.6669 37.0158 72.3733 34.2566 72.6349C31.6694 72.8805 29.487 72.5533 28.155 72.2525C27.4086 72.0845 26.9934 71.2877 27.2854 70.5805L27.3478 70.4293L28.683 67.1933C28.683 67.1933 28.6862 67.1853 28.6886 67.1821C28.923 66.6269 29.5254 66.3237 30.111 66.4661C31.4854 66.8005 33.991 67.2485 35.9318 66.6869C37.0742 66.3549 37.9174 66.0693 38.5166 65.8461C39.0854 65.6333 39.7046 65.8685 40.0022 66.3621C40.0574 66.4525 40.1006 66.5533 40.1318 66.6605L40.9638 69.5717L41.0038 69.7125C41.1766 70.3173 40.867 70.9525 40.2854 71.1909H40.2862Z" fill="url(#paint21_linear_13471_17026)"/>
<path d="M16.6286 67.644C16.4894 67.644 16.351 67.6424 16.2118 67.64C16.079 67.6376 15.9742 67.528 15.9766 67.3952C15.979 67.264 16.0862 67.16 16.2166 67.16C16.2182 67.16 16.2198 67.16 16.2214 67.16C16.8526 67.1712 17.4902 67.156 18.119 67.1128C18.251 67.1032 18.3654 67.204 18.375 67.336C18.3838 67.468 18.2838 67.5824 18.1518 67.592C17.647 67.6264 17.135 67.644 16.6286 67.644ZM14.3014 67.52C14.2926 67.52 14.2846 67.52 14.2758 67.5184C13.6326 67.4496 12.987 67.3512 12.3574 67.2264C12.2278 67.2008 12.143 67.0744 12.1686 66.944C12.1942 66.8144 12.3214 66.7296 12.451 66.7552C13.067 66.8776 13.6982 66.9736 14.3278 67.0408C14.4598 67.0552 14.555 67.1736 14.5406 67.3048C14.5278 67.428 14.423 67.5192 14.3022 67.5192L14.3014 67.52ZM20.043 67.3784C19.927 67.3784 19.8246 67.2936 19.8062 67.1752C19.7854 67.044 19.875 66.9216 20.0062 66.9008C20.6302 66.8032 21.2566 66.6768 21.867 66.5256C21.9958 66.4936 22.1254 66.572 22.1574 66.7008C22.1894 66.8296 22.111 66.96 21.9822 66.9912C21.3574 67.1456 20.7182 67.2752 20.0798 67.3752C20.067 67.3768 20.055 67.3784 20.0422 67.3784H20.043ZM23.7654 66.4552C23.6654 66.4552 23.5726 66.3928 23.5382 66.2928C23.495 66.1672 23.5614 66.0312 23.687 65.988C23.8094 65.9456 23.9318 65.9024 24.0534 65.8584C24.527 65.6856 24.9982 65.4944 25.4518 65.2904C25.5726 65.236 25.715 65.2904 25.7694 65.4112C25.8238 65.532 25.7694 65.6744 25.6486 65.7288C25.1838 65.9376 24.7022 66.1328 24.2182 66.3096C24.0934 66.3552 23.9694 66.3992 23.8438 66.4424C23.8182 66.4512 23.7918 66.4552 23.7654 66.4552ZM27.2614 64.88C27.1782 64.88 27.0974 64.8368 27.0534 64.7592C26.9878 64.644 27.027 64.4976 27.1422 64.432C27.7086 64.1064 28.2414 63.7584 28.7246 63.3976C28.831 63.3184 28.9814 63.34 29.0606 63.4464C29.1398 63.5528 29.1182 63.7032 29.0118 63.7824C28.5126 64.1552 27.9646 64.5136 27.3814 64.8488C27.3438 64.8704 27.303 64.8808 27.2622 64.8808L27.2614 64.88ZM41.647 63.7448C41.5174 63.7448 41.411 63.6416 41.407 63.5112C41.4038 63.3784 41.5078 63.268 41.6406 63.2648C42.271 63.248 42.9118 63.2136 43.5446 63.1624C43.6766 63.1512 43.7926 63.2504 43.803 63.3824C43.8134 63.5144 43.715 63.6304 43.583 63.6408C42.9414 63.6928 42.2918 63.7272 41.6534 63.7448C41.651 63.7448 41.6494 63.7448 41.647 63.7448ZM39.727 63.7432C39.727 63.7432 39.7222 63.7432 39.7198 63.7432C39.0718 63.724 38.4222 63.6864 37.7894 63.6312C37.6574 63.62 37.5598 63.5032 37.571 63.3712C37.583 63.2392 37.6982 63.1408 37.831 63.1528C38.4542 63.2072 39.0942 63.2448 39.7334 63.2632C39.8662 63.2672 39.9702 63.3776 39.9662 63.5104C39.9622 63.6408 39.8558 63.7432 39.7262 63.7432H39.727ZM45.4726 63.4368C45.3542 63.4368 45.251 63.3496 45.235 63.2288C45.2174 63.0976 45.3094 62.9768 45.4406 62.9592C46.067 62.8752 46.7006 62.7728 47.3238 62.656C47.4542 62.632 47.5798 62.7176 47.6038 62.8472C47.6286 62.9776 47.5422 63.1032 47.4126 63.1272C46.7814 63.2456 46.139 63.3496 45.5046 63.4344C45.4934 63.436 45.483 63.4368 45.4726 63.4368ZM35.9046 63.4048C35.8926 63.4048 35.8806 63.404 35.8678 63.4024C35.1846 63.2976 34.5614 63.1744 33.963 63.0248C33.8342 62.9928 33.7566 62.8624 33.7886 62.7336C33.8206 62.6048 33.951 62.5272 34.0798 62.5592C34.6638 62.7048 35.2726 62.8256 35.9406 62.928C36.0718 62.948 36.1614 63.0704 36.1414 63.2016C36.123 63.32 36.0206 63.4056 35.9046 63.4056V63.4048ZM49.2454 62.7264C49.1374 62.7264 49.039 62.6528 49.0126 62.5432C48.9814 62.4144 49.0606 62.2848 49.1894 62.2536C49.807 62.1032 50.4262 61.9344 51.0294 61.7528C51.1566 61.7144 51.2902 61.7864 51.3286 61.9136C51.367 62.0408 51.295 62.1744 51.1678 62.2128C50.5566 62.3976 49.9286 62.568 49.3022 62.7208C49.283 62.7256 49.2638 62.728 49.2454 62.728V62.7264ZM30.3134 62.5696C30.2534 62.5696 30.1942 62.5472 30.1478 62.5032C30.0518 62.4112 30.0486 62.26 30.1406 62.164C30.2846 62.0136 30.4198 61.8592 30.547 61.7024C30.4782 61.664 30.411 61.6248 30.3438 61.5848C30.2302 61.5168 30.1926 61.3696 30.2598 61.256C30.3278 61.1424 30.475 61.1048 30.5886 61.172C30.6702 61.22 30.7526 61.268 30.8366 61.3144C30.9822 61.104 31.1126 60.8896 31.227 60.6704C31.2886 60.5528 31.4334 60.5072 31.551 60.5688C31.6686 60.6304 31.7142 60.7752 31.6526 60.8928C31.5374 61.1128 31.4078 61.3288 31.2646 61.54C31.5894 61.7024 31.9286 61.8536 32.2798 61.9904C32.403 62.0384 32.4646 62.1776 32.4158 62.3016C32.3678 62.4248 32.2286 62.4856 32.1046 62.4376C31.7134 62.2848 31.3358 62.116 30.9766 61.932C30.8254 62.1248 30.6622 62.3128 30.4878 62.4952C30.4406 62.5448 30.3774 62.5696 30.3142 62.5696H30.3134ZM52.9206 61.6168C52.8222 61.6168 52.7302 61.556 52.695 61.4584C52.6494 61.3336 52.7142 61.196 52.8382 61.1512C53.4366 60.9336 54.0334 60.6968 54.6102 60.4488C54.7318 60.396 54.8734 60.4528 54.9254 60.5744C54.9774 60.696 54.9214 60.8376 54.7998 60.8896C54.2142 61.1416 53.6094 61.3816 53.0022 61.6024C52.975 61.612 52.9478 61.6168 52.9206 61.6168ZM28.9694 60.4264C28.9038 60.4264 28.8382 60.3992 28.7902 60.3464C28.3174 59.8184 28.015 59.2472 27.8902 58.6488C27.8822 58.612 27.8758 58.5744 27.8702 58.5368C27.8494 58.4056 27.939 58.2832 28.0702 58.2624C28.2014 58.2416 28.3238 58.3312 28.3446 58.4624C28.3494 58.492 28.3542 58.5216 28.3606 58.5504C28.467 59.0656 28.7318 59.5616 29.1478 60.0256C29.2366 60.124 29.2278 60.276 29.1294 60.3648C29.0838 60.4056 29.0262 60.4264 28.9694 60.4264ZM56.4446 60.0968C56.3566 60.0968 56.2726 60.0488 56.2302 59.9648C56.1702 59.8464 56.2182 59.7024 56.3358 59.6424C56.9062 59.3544 57.4678 59.0472 58.007 58.7296C58.1214 58.6624 58.2686 58.7 58.3358 58.8144C58.403 58.9288 58.3654 59.076 58.251 59.1432C57.703 59.4664 57.1318 59.7784 56.5526 60.0704C56.5182 60.088 56.4806 60.096 56.4446 60.096V60.0968ZM32.0046 59.2C31.9966 59.2 31.9886 59.2 31.9806 59.1992C31.8486 59.1856 31.7526 59.068 31.7654 58.936C31.7766 58.8272 31.783 58.7168 31.7854 58.608C31.7854 58.5912 31.7854 58.5752 31.7854 58.5584C31.7854 58.1008 31.667 57.6224 31.451 57.2104C31.3894 57.0928 31.435 56.948 31.5526 56.8864C31.6702 56.8248 31.815 56.8704 31.8766 56.988C32.1278 57.4672 32.2654 58.0248 32.2654 58.5584C32.2654 58.5784 32.2654 58.5976 32.2654 58.6176C32.263 58.7392 32.2558 58.8624 32.243 58.984C32.2302 59.108 32.1262 59.2 32.0046 59.2ZM59.7494 58.1464C59.6726 58.1464 59.5982 58.1096 59.551 58.0424C59.4758 57.9328 59.5038 57.784 59.6134 57.7088C60.1398 57.348 60.6534 56.9672 61.1414 56.5768C61.2446 56.4944 61.3958 56.5112 61.479 56.6144C61.5622 56.7176 61.5454 56.8688 61.4414 56.952C60.9446 57.3496 60.4206 57.7376 59.8846 58.1056C59.843 58.1344 59.7958 58.148 59.7494 58.148V58.1464ZM28.5654 56.9248C28.5158 56.9248 28.4662 56.9096 28.423 56.8784C28.3166 56.8 28.2934 56.6496 28.3718 56.5432C28.7838 55.984 29.3478 55.676 29.9622 55.676H29.9806C30.0742 55.6768 30.1694 55.6848 30.263 55.7C30.3942 55.7216 30.4822 55.8448 30.4614 55.9752C30.4398 56.1064 30.3166 56.1944 30.1862 56.1736C30.1174 56.1624 30.0462 56.156 29.9758 56.156H29.9638C29.5062 56.156 29.079 56.3944 28.7606 56.828C28.7134 56.892 28.6406 56.9256 28.567 56.9256L28.5654 56.9248ZM62.743 55.748C62.679 55.748 62.615 55.7224 62.5678 55.672C62.4774 55.5752 62.4822 55.4232 62.579 55.3328C63.0438 54.8968 63.491 54.4416 63.9094 53.9776C63.9982 53.8792 64.1502 53.8712 64.2486 53.96C64.347 54.0488 64.355 54.2008 64.2662 54.2992C63.839 54.7728 63.3822 55.2384 62.9078 55.6824C62.8614 55.7256 62.8022 55.7472 62.7438 55.7472L62.743 55.748ZM65.3094 52.8992C65.259 52.8992 65.2086 52.8832 65.1654 52.8512C65.0598 52.7712 65.0382 52.6208 65.1182 52.5152C65.4558 52.068 65.7766 51.6032 66.0734 51.1352C66.1446 51.0232 66.2926 50.9896 66.4046 51.0608C66.5166 51.132 66.5502 51.28 66.479 51.392C66.1758 51.8712 65.847 52.3456 65.5014 52.804C65.4542 52.8664 65.3822 52.8992 65.3094 52.8992Z" fill="#CCD2D6"/>
<path d="M70.1998 45.6733C70.6035 44.7741 69.3997 43.3576 67.5109 42.5096C65.6222 41.6615 63.7637 41.703 63.36 42.6023C62.9562 43.5015 64.16 44.9179 66.0488 45.766C67.9376 46.614 69.796 46.5725 70.1998 45.6733Z" fill="url(#paint22_linear_13471_17026)"/>
<g opacity="0.5">
<path d="M70.7912 48.0483C71.8132 46.2477 71.7097 44.259 70.5601 43.6065C69.4104 42.9539 67.6499 43.8845 66.6279 45.6851C65.6059 47.4857 65.7093 49.4743 66.859 50.1269C68.0086 50.7794 69.7691 49.8488 70.7912 48.0483Z" fill="#CCD2D6"/>
<path d="M69.7424 43.4804C70.0288 43.4804 70.2912 43.5468 70.5224 43.678C71.632 44.3076 71.7216 46.2516 70.7232 48.0108C69.96 49.3548 68.7376 50.2572 67.68 50.2572C67.3936 50.2572 67.1312 50.1908 66.9 50.0596C65.7904 49.43 65.7008 47.486 66.6992 45.7268C67.4624 44.3828 68.6848 43.4804 69.7424 43.4804ZM69.7424 43.4004C68.684 43.4004 67.4304 44.2772 66.6296 45.6876C65.6072 47.4884 65.7112 49.4772 66.86 50.1292C67.1088 50.2708 67.3864 50.3372 67.6792 50.3372C68.7376 50.3372 69.9912 49.4604 70.792 48.05C71.8144 46.2492 71.7104 44.2604 70.5616 43.6084C70.3128 43.4668 70.0352 43.4004 69.7424 43.4004Z" fill="#CCD2D6"/>
</g>
<path d="M70.7912 48.0483C71.8132 46.2477 71.7097 44.259 70.5601 43.6065C69.4104 42.9539 67.6499 43.8845 66.6279 45.6851C65.6059 47.4857 65.7093 49.4743 66.859 50.1269C68.0086 50.7794 69.7691 49.8488 70.7912 48.0483Z" fill="url(#paint23_linear_13471_17026)"/>
<path d="M67.0898 47.748C69.1297 47.3934 70.6464 46.3187 70.4776 45.3476C70.3088 44.3764 68.5184 43.8766 66.4786 44.2311C64.4388 44.5856 62.922 45.6603 63.0908 46.6315C63.2596 47.6026 65.05 48.1025 67.0898 47.748Z" fill="url(#paint24_linear_13471_17026)"/>
<path d="M28.7915 6.33594H46.8035C47.7819 6.33594 48.5755 7.12954 48.5755 8.10794V18.4175C48.5755 19.3959 47.7819 20.1895 46.8035 20.1895H43.9339V21.8591C43.9339 22.6271 43.0267 23.0351 42.4515 22.5255L39.8187 20.1895H28.7915C27.8131 20.1895 27.0195 19.3959 27.0195 18.4175V8.10794C27.0195 7.12954 27.8131 6.33594 28.7915 6.33594Z" fill="url(#paint25_linear_13471_17026)"/>
<path d="M34.7656 12.2526C34.7656 11.0822 35.0304 10.1766 35.56 9.53582C36.0896 8.89502 36.836 8.57422 37.7992 8.57422C38.7624 8.57422 39.508 8.89262 40.0352 9.52942C40.5624 10.1662 40.8264 11.0718 40.8264 12.2462V13.8342C40.8264 15.0006 40.5616 15.9038 40.032 16.5446C39.5024 17.1854 38.7544 17.5062 37.7872 17.5062C36.828 17.5062 36.0848 17.1878 35.5568 16.551C35.0296 15.9142 34.7656 15.0086 34.7656 13.8342V12.2518V12.2526ZM36.7776 14.1398C36.7816 14.7646 36.8648 15.2238 37.028 15.5158C37.1912 15.8086 37.444 15.955 37.7864 15.955C38.1408 15.955 38.3992 15.8046 38.5624 15.5038C38.7256 15.203 38.8072 14.7286 38.8072 14.0798V11.859C38.7952 11.2782 38.7104 10.8438 38.5536 10.5574C38.3968 10.271 38.1448 10.1278 37.7984 10.1278C37.444 10.1278 37.1856 10.2822 37.0224 10.5902C36.8592 10.899 36.7776 11.3654 36.7776 11.9902V14.1398Z" fill="url(#paint26_linear_13471_17026)"/>
<defs>
<linearGradient id="paint0_linear_13471_17026" x1="10.256" y1="12.0289" x2="10.256" y2="82.3625" gradientUnits="userSpaceOnUse">
<stop stop-color="#CCD2D6" stop-opacity="0.1"/>
<stop offset="1" stop-color="#CCD2D6" stop-opacity="0.25"/>
</linearGradient>
<linearGradient id="paint1_linear_13471_17026" x1="34.9231" y1="12.0287" x2="34.9231" y2="82.3623" gradientUnits="userSpaceOnUse">
<stop stop-color="#CCD2D6" stop-opacity="0.1"/>
<stop offset="1" stop-color="#CCD2D6" stop-opacity="0.25"/>
</linearGradient>
<linearGradient id="paint2_linear_13471_17026" x1="40" y1="12.0289" x2="40" y2="82.3625" gradientUnits="userSpaceOnUse">
<stop stop-color="#CCD2D6" stop-opacity="0.1"/>
<stop offset="1" stop-color="#CCD2D6" stop-opacity="0.25"/>
</linearGradient>
<linearGradient id="paint3_linear_13471_17026" x1="40" y1="12.0292" x2="40" y2="82.3628" gradientUnits="userSpaceOnUse">
<stop stop-color="#CCD2D6" stop-opacity="0.1"/>
<stop offset="1" stop-color="#CCD2D6" stop-opacity="0.25"/>
</linearGradient>
<linearGradient id="paint4_linear_13471_17026" x1="21.5095" y1="12.0297" x2="21.5095" y2="82.3633" gradientUnits="userSpaceOnUse">
<stop stop-color="#CCD2D6" stop-opacity="0.1"/>
<stop offset="1" stop-color="#CCD2D6" stop-opacity="0.25"/>
</linearGradient>
<linearGradient id="paint5_linear_13471_17026" x1="43.0977" y1="33.5634" x2="53.7497" y2="33.5634" gradientUnits="userSpaceOnUse">
<stop stop-color="#CCD2D6" stop-opacity="0.5"/>
<stop offset="1" stop-color="#CCD2D6"/>
</linearGradient>
<linearGradient id="paint6_linear_13471_17026" x1="47.5144" y1="30.459" x2="63.9088" y2="30.459" gradientUnits="userSpaceOnUse">
<stop stop-color="#CCD2D6" stop-opacity="0.5"/>
<stop offset="1" stop-color="#CCD2D6"/>
</linearGradient>
<linearGradient id="paint7_linear_13471_17026" x1="57.3029" y1="18.6138" x2="66.0445" y2="44.7586" gradientUnits="userSpaceOnUse">
<stop stop-color="#CCD2D6" stop-opacity="0.25"/>
<stop offset="1" stop-color="#CCD2D6" stop-opacity="0.5"/>
</linearGradient>
<linearGradient id="paint8_linear_13471_17026" x1="57.2758" y1="23.0645" x2="62.6678" y2="37.7709" gradientUnits="userSpaceOnUse">
<stop stop-color="#CCD2D6" stop-opacity="0.7"/>
<stop offset="1" stop-color="#CCD2D6"/>
</linearGradient>
<linearGradient id="paint9_linear_13471_17026" x1="57.1211" y1="29.306" x2="68.6187" y2="29.306" gradientUnits="userSpaceOnUse">
<stop stop-color="#CCD2D6" stop-opacity="0.9"/>
<stop offset="1" stop-color="#CCD2D6"/>
</linearGradient>
<linearGradient id="paint10_linear_13471_17026" x1="57.1479" y1="25.8618" x2="58.0671" y2="30.0898" gradientUnits="userSpaceOnUse">
<stop stop-color="#CCD2D6" stop-opacity="0.25"/>
<stop offset="1" stop-color="#CCD2D6" stop-opacity="0.5"/>
</linearGradient>
<linearGradient id="paint11_linear_13471_17026" x1="55.9607" y1="26.12" x2="56.8799" y2="30.348" gradientUnits="userSpaceOnUse">
<stop stop-color="#CCD2D6" stop-opacity="0.25"/>
<stop offset="1" stop-color="#CCD2D6" stop-opacity="0.5"/>
</linearGradient>
<linearGradient id="paint12_linear_13471_17026" x1="7.53588" y1="42.8913" x2="26.7559" y2="42.8913" gradientUnits="userSpaceOnUse">
<stop stop-color="#CCD2D6" stop-opacity="0.5"/>
<stop offset="1" stop-color="#CCD2D6"/>
</linearGradient>
<linearGradient id="paint13_linear_13471_17026" x1="19.3157" y1="38.9052" x2="38.8765" y2="38.9052" gradientUnits="userSpaceOnUse">
<stop stop-color="#CCD2D6" stop-opacity="0.5"/>
<stop offset="1" stop-color="#CCD2D6"/>
</linearGradient>
<linearGradient id="paint14_linear_13471_17026" x1="31.7904" y1="27.1436" x2="40.532" y2="53.2884" gradientUnits="userSpaceOnUse">
<stop stop-color="#CCD2D6" stop-opacity="0.25"/>
<stop offset="1" stop-color="#CCD2D6" stop-opacity="0.5"/>
</linearGradient>
<linearGradient id="paint15_linear_13471_17026" x1="31.8159" y1="32.4003" x2="37.2079" y2="47.1067" gradientUnits="userSpaceOnUse">
<stop stop-color="#CCD2D6" stop-opacity="0.7"/>
<stop offset="1" stop-color="#CCD2D6"/>
</linearGradient>
<linearGradient id="paint16_linear_13471_17026" x1="30.7821" y1="37.5317" x2="44.4997" y2="37.5317" gradientUnits="userSpaceOnUse">
<stop stop-color="#CCD2D6" stop-opacity="0.9"/>
<stop offset="1" stop-color="#CCD2D6"/>
</linearGradient>
<linearGradient id="paint17_linear_13471_17026" x1="31.1278" y1="33.7355" x2="31.9854" y2="42.0075" gradientUnits="userSpaceOnUse">
<stop stop-color="#CCD2D6" stop-opacity="0.25"/>
<stop offset="1" stop-color="#CCD2D6" stop-opacity="0.5"/>
</linearGradient>
<linearGradient id="paint18_linear_13471_17026" x1="30.1681" y1="33.8345" x2="31.0257" y2="42.1073" gradientUnits="userSpaceOnUse">
<stop stop-color="#CCD2D6" stop-opacity="0.25"/>
<stop offset="1" stop-color="#CCD2D6" stop-opacity="0.5"/>
</linearGradient>
<linearGradient id="paint19_linear_13471_17026" x1="15.207" y1="61.2392" x2="28.6862" y2="61.2392" gradientUnits="userSpaceOnUse">
<stop stop-color="#CCD2D6" stop-opacity="0.25"/>
<stop offset="1" stop-color="#CCD2D6" stop-opacity="0.5"/>
</linearGradient>
<linearGradient id="paint20_linear_13471_17026" x1="39.9992" y1="55.1036" x2="54.268" y2="55.1036" gradientUnits="userSpaceOnUse">
<stop stop-color="#CCD2D6" stop-opacity="0.25"/>
<stop offset="1" stop-color="#CCD2D6" stop-opacity="0.5"/>
</linearGradient>
<linearGradient id="paint21_linear_13471_17026" x1="33.2694" y1="65.1189" x2="35.4758" y2="79.1717" gradientUnits="userSpaceOnUse">
<stop stop-color="#CCD2D6" stop-opacity="0.5"/>
<stop offset="1" stop-color="#CCD2D6"/>
</linearGradient>
<linearGradient id="paint22_linear_13471_17026" x1="63.2842" y1="44.134" x2="70.2802" y2="44.134" gradientUnits="userSpaceOnUse">
<stop stop-color="#CCD2D6" stop-opacity="0.25"/>
<stop offset="1" stop-color="#CCD2D6" stop-opacity="0.5"/>
</linearGradient>
<linearGradient id="paint23_linear_13471_17026" x1="65.9232" y1="46.8674" x2="71.4936" y2="46.8674" gradientUnits="userSpaceOnUse">
<stop stop-color="#CCD2D6" stop-opacity="0.5"/>
<stop offset="1" stop-color="#CCD2D6"/>
</linearGradient>
<linearGradient id="paint24_linear_13471_17026" x1="63.0775" y1="45.9898" x2="70.4895" y2="45.9898" gradientUnits="userSpaceOnUse">
<stop stop-color="#CCD2D6" stop-opacity="0.25"/>
<stop offset="1" stop-color="#CCD2D6" stop-opacity="0.5"/>
</linearGradient>
<linearGradient id="paint25_linear_13471_17026" x1="37.7979" y1="9.55674" x2="37.7979" y2="24.8455" gradientUnits="userSpaceOnUse">
<stop stop-color="#CCD2D6" stop-opacity="0.25"/>
<stop offset="1" stop-color="#CCD2D6" stop-opacity="0.5"/>
</linearGradient>
<linearGradient id="paint26_linear_13471_17026" x1="37.796" y1="8.92382" x2="37.796" y2="19.3998" gradientUnits="userSpaceOnUse">
<stop stop-color="#CCD2D6" stop-opacity="0.5"/>
<stop offset="1" stop-color="#CCD2D6"/>
</linearGradient>
</defs>
</svg>
